<?xml version="1.0" standalone="no"?>
<!DOCTYPE svg PUBLIC "-//W3C//DTD SVG 1.1//EN" "http://www.w3.org/Graphics/SVG/1.1/DTD/svg11.dtd" >
<svg xmlns="http://www.w3.org/2000/svg">
<metadata>Generated by IcoMoon</metadata>
<defs>
<font id="icomoon" horiz-adv-x="512">
<font-face units-per-em="512" ascent="506.88" descent="-5.12" />
<missing-glyph horiz-adv-x="512" />
<glyph unicode="&#x20;" horiz-adv-x="5.12" d="" />
<glyph unicode="&#xe900;" glyph-name="fm-arrow-down" d="M245.333 512c-23.552 0-42.667-19.115-42.667-42.666v-256h-170.667l213.333-213.334 213.332 213.333h-170.666v256c0 23.552-19.115 42.666-42.666 42.666z" />
<glyph unicode="&#xe901;" glyph-name="fm-arrow-down-rectangle" d="M166.4 512c-56.553 0-102.4-45.85-102.4-102.4v-307.2c0-56.55 45.847-102.4 102.4-102.4h204.8c56.55 0 102.4 45.849 102.4 102.4v307.2c0 56.55-45.849 102.4-102.4 102.4h-204.8zM166.4 460.8h204.8c28.288 0 51.2-22.912 51.2-51.2v-307.2c0-28.288-22.912-51.2-51.2-51.2h-204.8c-28.278 0-51.2 22.912-51.2 51.2v307.2c0 28.288 22.922 51.2 51.2 51.2zM268.8 384c-14.131 0-25.6-11.469-25.6-25.6v-128h-76.799l102.399-102.4 102.401 102.4h-76.8v128c0 14.131-11.469 25.6-25.6 25.6z" />
<glyph unicode="&#xe902;" glyph-name="fm-arrow-left" horiz-adv-x="546" d="M546.134 266.195c0 25.122-20.343 45.465-45.466 45.465-21.753 0-276.024 0-343.836 0l134.985 136.397-63.944 63.943-214.538-213.129c-8.92-8.875-13.335-20.799-13.335-32.723 0-11.878 4.46-23.757 13.335-32.631l214.538-213.13 63.944 63.945-134.984 136.395c67.811 0 322.082 0 343.836 0 25.122 0 45.466 20.344 45.466 45.466z" />
<glyph unicode="&#xe903;" glyph-name="fm-arrow-left-outlined" d="M215.275 98.327c8.497 3.914 15.202 12.257 15.202 23.186v51.187c58.429 0 223.939 0 255.929 0 14.128 0 25.595 11.464 25.595 25.593v153.558c0 14.153-11.466 25.593-25.595 25.593h-255.929v51.186c0 21.882-25.798 33.424-42.382 19.195l-179.15-153.558c-11.927-10.212-11.927-28.178 0-38.389l179.15-153.559c8.292-7.114 18.708-7.882 27.18-3.991zM179.291 176.717l-114.375 98.355 114.375 98.379v-21.601c0-14.127 11.465-25.593 25.593-25.593h255.929v-102.372c-58.43 0-223.938 0-255.929 0-14.127 0-25.593-11.44-25.593-25.592v-21.575z" />
<glyph unicode="&#xe904;" glyph-name="fm-arrow-right" horiz-adv-x="546" d="M0.002 266.195c0 25.122 20.357 45.465 45.465 45.465 21.745 0 276.025 0 343.837 0l-134.987 136.397 63.944 63.943 214.539-213.129c8.919-8.875 13.336-20.798 13.336-32.722 0-11.879-4.461-23.757-13.336-32.632l-214.539-213.129-63.944 63.945 134.987 136.396c-67.812 0-322.091 0-343.837 0-25.108 0-45.465 20.343-45.465 45.466z" />
<glyph unicode="&#xe905;" glyph-name="fm-arrow-right-arrow-left" d="M512 147.2l-128 128v-102.4h-332.8c-14.131 0-25.6-11.469-25.6-25.6s11.469-25.6 25.6-25.6h332.8v-102.4l128 128zM486.4 352c0 14.131-11.469 25.6-25.6 25.6h-332.8v102.4l-128-128 128-128v102.4h332.8c14.131 0 25.6 11.469 25.6 25.6z" />
<glyph unicode="&#xe906;" glyph-name="fm-arrow-rotate" horiz-adv-x="615" d="M307.2 512c-57.363 0-112.156-19.242-156.225-54.124-12.093-9.551-13.936-27.173-4.357-39.265s27.173-13.936 39.266-4.357c34.267 27.117 76.659 41.891 121.316 41.891 107.968 0 195.492-87.524 195.492-195.491h-55.856l83.784-111.709 83.781 111.709h-55.854c0 138.827-112.519 251.345-251.346 251.345zM83.782 372.363l-83.782-111.709h55.855c0-138.827 112.519-251.346 251.345-251.346 57.39 0 112.156 19.216 156.224 54.123 12.094 9.551 13.937 27.175 4.357 39.266-9.579 12.094-27.172 13.937-39.266 4.357-34.294-27.144-76.631-41.889-121.316-41.889-107.966 0-195.491 87.524-195.491 195.49h55.855l-83.781 111.709z" />
<glyph unicode="&#xe907;" glyph-name="fm-arrow-rotate-left" horiz-adv-x="480" d="M230.096 512v-73.143c121.19 0 219.43-98.24 219.43-219.428 0-121.198-98.24-219.428-219.43-219.428-121.188 0-219.429 98.231-219.429 219.428 0 39.204 10.428 77.293 29.713 110.475 6.768 11.642 21.884 15.148 33.524 8.382 11.642-6.766 15.15-21.882 8.382-33.524-14.989-25.788-22.857-54.808-22.857-85.333 0-94.257 76.41-170.667 170.667-170.667 94.259 0 170.668 76.409 170.668 170.667 0 94.257-76.409 170.667-170.668 170.667v-73.143l-97.524 97.524 97.524 97.524z" />
<glyph unicode="&#xe908;" glyph-name="fm-arrow-rotate-right" horiz-adv-x="480" d="M230.097 512v-73.143c-121.188 0-219.429-98.24-219.429-219.428 0-121.198 98.241-219.428 219.429-219.428 121.189 0 219.429 98.231 219.429 219.428 0 39.204-10.429 77.293-29.715 110.475-6.768 11.642-21.882 15.148-33.526 8.382-11.639-6.766-15.146-21.882-8.377-33.524 14.989-25.788 22.858-54.808 22.858-85.333 0-94.257-76.409-170.667-170.668-170.667-94.257 0-170.667 76.409-170.667 170.667 0 94.257 76.41 170.667 170.667 170.667v-73.143l97.522 97.524-97.522 97.524z" />
<glyph unicode="&#xe909;" glyph-name="fm-arrow-up" d="M245.334 0c23.552 0 42.666 19.113 42.666 42.666v256.001h170.668l-213.334 213.333-213.333-213.333 170.667-0v-256.001c0-23.552 19.115-42.666 42.667-42.666z" />
<glyph unicode="&#xe90a;" glyph-name="fm-arrow-up-rectangle" d="M166.4 0c-56.55 0-102.4 45.849-102.4 102.4v307.2c0 56.55 45.85 102.4 102.4 102.4h204.8c56.55 0 102.4-45.849 102.4-102.4v-307.2c0-56.55-45.849-102.4-102.4-102.4h-204.8zM166.4 51.2h204.8c28.288 0 51.2 22.912 51.2 51.2v307.2c0 28.288-22.912 51.2-51.2 51.2h-204.8c-28.288 0-51.2-22.912-51.2-51.2v-307.2c0-28.288 22.912-51.2 51.2-51.2zM268.8 128c-14.131 0-25.6 11.469-25.6 25.6v128h-76.799l102.399 102.4 102.401-102.4h-76.8v-128c0-14.131-11.469-25.6-25.6-25.6z" />
<glyph unicode="&#xe90b;" glyph-name="fm-backward-fast" horiz-adv-x="585" d="M29.256 499.806c-16.149 0-29.256-13.106-29.256-29.256v-409.582c0-16.15 13.107-29.253 29.256-29.253s29.256 13.103 29.256 29.253v151.78l159.094-159.094c0 0 4.359-5.12 8.22-8.221 10.006-8.134 23.142-13.63 37.477-13.718 31.801-0.205 58.278 25.889 58.512 58.51 0.029 3.336 0 67.873 0 122.522l159.093-159.094c0 0 4.36-5.12 8.221-8.221 10.006-8.134 23.143-13.63 37.478-13.718 31.799-0.205 58.276 25.889 58.51 58.51 0.058 9.538 0 343.2 0 351.070 0.351 32.152-25.834 58.219-58.51 58.512-12.552 0.117-23.582-3.686-32.914-10.064-4.243-2.867-7.519-5.442-10.065-8.221l-161.814-162.721c0 54.474 0 119.745 0 122.495 0.351 32.152-25.833 58.219-58.512 58.511-12.551 0.117-23.58-3.686-32.913-10.064-4.243-2.867-7.518-5.442-10.064-8.221l-161.815-162.721v151.75c0 16.149-13.107 29.256-29.256 29.256zM263.303 441.295v-351.070l-175.535 175.534 175.535 175.535zM526.606 441.295v-351.070l-175.536 175.534 175.536 175.535z" />
<glyph unicode="&#xe90c;" glyph-name="fm-bell" horiz-adv-x="463" d="M243.589 487.646c-86.608 0-146.286-59.685-146.286-146.286 0-11.825 0-48.031 0-48.762 0-7.851-3.965-13.19-17.525-24.381-1.538-1.267-7.987-6.802-9.903-8.386-30.852-25.503-46.036-49.396-45.715-89.137 0.325-40.18 33.078-72.68 73.143-73.143h77.434c0 0-4.291-14.897-4.291-24.381 0-40.401 32.744-73.145 73.143-73.145s73.142 32.743 73.142 73.145c0 9.484-4.096 24.381-4.096 24.381h77.239c39.985-0.147 73.192 32.793 73.143 73.143-0.049 39.449-15.262 63.756-45.714 89.137-1.999 1.683-9.070 7.070-10.679 8.387-13.263 11.069-16.75 16.628-16.75 24.381 0 30.477 0 48.762 0 48.762 0 86.601-59.685 146.286-146.285 146.286zM243.589 438.884c59.684 0 97.523-37.839 97.523-97.524 0 0 0-18.286 0-48.762 0-25.892 10.923-42.228 34.279-61.707 1.853-1.536 9.679-7.68 11.435-9.143 20.431-17.043 27.404-28.575 27.428-51.053 0.024-13.263-11.337-24.43-24.381-24.381-4.608 0.024-75.581 0.024-146.285 0-70.698-0.024-141.105-0.049-146.286 0-13.609 0.171-24.271 10.849-24.381 24.381-0.18 22.43 6.79 33.987 27.428 51.053 1.684 1.389 8.894 7.68 10.666 9.143 23.727 19.603 35.047 35.572 35.047 61.707 0 0.732 0 36.938 0 48.762 0 59.685 37.846 97.524 97.524 97.524zM243.589 97.55c13.457 0 24.38-10.923 24.38-24.381s-10.923-24.381-24.38-24.381c-13.459 0-24.381 10.923-24.381 24.381s10.922 24.381 24.381 24.381z" />
<glyph unicode="&#xe90d;" glyph-name="fm-bookmark" horiz-adv-x="427" d="M102.454 512c-65.373 0-102.454-37.081-102.454-102.454v-384.202c0-18.387 18.316-30.455 35.218-23.211l169.689 72.839 168.895-72.839c16.904-7.245 36.013 4.824 36.013 23.211v384.202c0 67.194-33.425 102.454-102.454 102.454h-204.909zM102.454 460.773h204.909c40.109 0 51.226-11.729 51.226-51.227v-345.781l-144.075 61.63c-6.456 2.765-13.576 2.765-20.005 0l-143.281-61.63v345.781c0 37.080 14.147 51.227 51.227 51.227zM128.067 307.092c-14.147 0-25.614-11.468-25.614-25.614s11.467-25.613 25.614-25.613h153.68c14.139 0 25.615 11.466 25.615 25.613s-11.475 25.614-25.615 25.614h-153.68z" />
<glyph unicode="&#xe90e;" glyph-name="fm-broom" horiz-adv-x="539" d="M529.047 502.143c-6.317 6.312-14.88 9.857-23.808 9.857-8.93 0-17.494-3.546-23.81-9.857l-106.973-106.974c-20.919 18.774-47.608 29.862-75.671 31.438s-55.827-6.453-78.718-22.764c-27.761-20.671-58.51-36.99-91.188-48.399l-40.159-11.767c-16.802-4.929-32.363-13.375-45.651-24.778s-24-25.501-31.423-41.359c-7.423-15.858-11.389-33.115-11.634-50.622-0.245-17.51 3.236-34.87 10.213-50.93 24.442-60.589 69.257-110.751 126.72-141.84 45.292-21.264 94.915-31.688 144.935-30.445h1.418c16.858-0.005 33.264 5.465 46.748 15.584 70.726 50.798 119.072 126.971 134.931 212.591 3.468 19.877 2.056 40.3-4.115 59.512-6.168 19.213-16.909 36.64-31.3 50.785l-6.478 6.274 106.078 106.106c6.287 6.33 9.806 14.896 9.784 23.818s-3.582 17.471-9.9 23.77zM289.31 72.976c-1.849-1.323-4.088-1.994-6.36-1.908-23.591 0.011-47.12 2.412-70.227 7.171 30.058 18.798 55.945 43.553 76.066 72.742l11.103 16.336c5.171 7.284 7.238 16.325 5.745 25.134-1.495 8.807-6.427 16.661-13.711 21.833s-16.325 7.238-25.132 5.745c-8.808-1.495-16.662-6.427-21.834-13.711l-0.752-1.127-11.102-16.279c-18.36-26.856-43.227-48.618-72.28-63.259l-23.303-11.563c-13.088 10.618-24.808 22.813-34.897 36.312 31.149 12.705 59.55 31.31 83.642 54.789 6 6.338 9.305 14.759 9.219 23.488s-3.558 17.082-9.684 23.301c-6.125 6.219-14.425 9.817-23.151 10.036s-17.196-2.957-23.626-8.861c-19.787-19.184-43.445-33.921-69.388-43.224-4.178 14.153-2.567 29.384 4.481 42.346 7.048 12.963 18.955 22.596 33.103 26.784h0.347l40.13 11.796c34.472 11.49 67.147 27.793 97.057 48.427l142.274-138.315c-19.418-51.267-53.382-95.75-97.722-127.992z" />
<glyph unicode="&#xe90f;" glyph-name="fm-bullhorn" horiz-adv-x="603" d="M511.967 484.704c-44.785-0.091-74.812-33.281-78.125-35.75-17.74-13.342-37.014-25.599-57.404-35.779-42.827-21.413-89.269-34.635-135.53-42.345-16.203-2.71-30.84-4.698-44.243-5.662-7.831-0.542-13.433-0.934-15.993-0.934h-62.103c-66.409 0-118.603-53.791-118.603-120.471 0-66.529 53.941-120.469 120.471-120.469v-30.118c0-49.905 40.448-90.353 90.353-90.353s90.353 40.448 90.353 90.353l0.18 10.27c25.359-7.288 51.32-17.167 75.113-29.094 20.269-10.149 39.755-22.528 57.404-35.75 3.313-2.5 36.864-36.051 78.125-35.78 49.453 0.332 90.353 38.43 90.353 86.588v308.705c0 48.158-40.298 86.678-90.353 86.588zM511.967 424.469c17.077 0 30.117-12.409 30.117-26.353v-308.705c0-13.945-13.041-26.353-30.118-26.353s-30.118 12.409-30.118 26.353c0 76.137 0 232.568 0 308.705 0 13.945 13.041 26.353 30.118 26.353zM421.614 369.624c0-75.746-0.271-175.224-0.271-250.969-6.204 3.464-11.204 6.144-17.619 9.337-48.7 24.425-100.653 40.298-152.456 48.941-31.202 5.211-55.958 6.596-70.596 6.596v120.47c14.637 0 39.424 1.385 70.596 6.595 51.772 8.613 103.785 24.606 152.456 48.941 6.445 3.223 11.656 6.596 17.89 10.089zM118.57 303.998h1.868v-120.47c-33.28 0-60.236 26.956-60.236 60.235 0 33.762 25.57 60.236 58.368 60.236zM180.673 123.293c2.56 0 8.162-0.392 15.993-0.933 13.403-0.964 28.039-2.952 44.243-5.662v-23.522c0-16.625-13.493-30.118-30.118-30.118s-30.118 13.493-30.118 30.118v30.118z" />
<glyph unicode="&#xe910;" glyph-name="fm-calendar" d="M134.736 512c-14.883 0-26.948-12.072-26.948-26.947-59.556 0-107.79-48.29-107.79-107.789v-269.474c0-59.498 48.26-107.789 107.79-107.789h269.473c59.529 0 107.792 48.262 107.792 107.789v269.474c0 59.419-48.291 107.789-107.792 107.789 0 14.875-12.070 26.948-26.947 26.948-14.873 0-26.947-12.073-26.947-26.948h-161.683c0 14.875-12.065 26.948-26.947 26.948zM107.788 431.158c0-14.875 12.064-26.947 26.947-26.947s26.947 12.072 26.947 26.947h161.683c0-14.875 12.074-26.947 26.947-26.947 14.877 0 26.947 12.072 26.947 26.947 29.671 0 53.897-24.037 53.897-53.894v-26.947c-51.901 0-325.375 0-377.264 0v26.947c0 29.696 24.047 53.894 53.894 53.894zM53.894 296.421c51.86 0 325.389 0 377.264 0v-188.632c0-29.721-24.118-53.894-53.897-53.894h-269.473c-29.766 0-53.895 24.118-53.895 53.894v188.632zM134.736 242.526c-14.883 0-26.948-12.072-26.948-26.947s12.064-26.949 26.948-26.949c14.883 0 26.947 12.074 26.947 26.949s-12.065 26.947-26.947 26.947zM242.525 242.526c-14.875 0-26.947-12.072-26.947-26.947s12.072-26.949 26.947-26.949c14.875 0 26.947 12.074 26.947 26.949s-12.072 26.947-26.947 26.947zM350.313 242.526c-14.873 0-26.947-12.072-26.947-26.947s12.074-26.949 26.947-26.949c14.877 0 26.947 12.074 26.947 26.949s-12.070 26.947-26.947 26.947zM134.736 161.683c-14.883 0-26.948-12.070-26.948-26.947 0-14.873 12.064-26.947 26.948-26.947s26.947 12.074 26.947 26.947c0 14.877-12.065 26.947-26.947 26.947zM242.525 161.683c-14.875 0-26.947-12.070-26.947-26.947 0-14.873 12.072-26.947 26.947-26.947s26.947 12.074 26.947 26.947c0 14.877-12.072 26.947-26.947 26.947zM350.313 161.683c-14.873 0-26.947-12.070-26.947-26.947 0-14.873 12.074-26.947 26.947-26.947 14.877 0 26.947 12.074 26.947 26.947 0 14.877-12.070 26.947-26.947 26.947z" />
<glyph unicode="&#xe911;" glyph-name="fm-calendar-day" d="M134.737 512c-14.883 0-26.948-12.072-26.948-26.947-59.529 0-107.79-48.263-107.79-107.789v-269.474c0-59.498 48.26-107.789 107.79-107.789h269.474c59.526 0 107.789 48.262 107.789 107.789v269.474c0 59.526-48.262 107.789-107.789 107.789 0 14.875-12.074 26.948-26.947 26.948-14.877 0-26.947-12.073-26.947-26.948h-161.685c0 14.875-12.065 26.948-26.947 26.948zM107.79 431.158c0-14.875 12.064-26.947 26.947-26.947s26.947 12.072 26.947 26.947h161.686c0-14.875 12.070-26.947 26.947-26.947 14.873 0 26.947 12.072 26.947 26.947 29.776 0 53.894-24.118 53.894-53.894v-26.947c-51.846 0-325.409 0-377.264 0v26.947c0 29.777 24.129 53.894 53.894 53.894zM53.895 296.421c51.854 0 325.418 0 377.264 0v-188.632c0-29.721-24.118-53.894-53.894-53.894h-269.474c-29.766 0-53.895 24.118-53.895 53.894v188.632zM292.217 242.526c-9 0-17.274-1.671-24.414-4.204-7.168-2.56-13.5-5.659-18.54-10.106-5.039-4.473-8.273-10.024-10.941-16.007-2.668-5.955-4.204-12.423-4.204-19.375-0.027-6.493 1.051-11.99 3.341-17.677 2.317-5.687 5.201-10.941 9.27-15.146 4.069-4.231 9.513-7.68 15.172-10.131 5.632-2.425 11.857-3.341 18.513-3.341 1.697-0.029 2.883 0.429 5.066 0.835 2.183 0.403 5.012 1.401 8.408 3.366h0.863l-38.75-42.954h41.257l32.014 37.053c7.168 8.355 12.531 16.627 15.978 25.251 3.478 8.649 5.069 17.002 5.069 24.44 0 6.602-1.536 12.666-4.205 18.514-2.669 5.875-5.93 10.752-10.941 15.171-5.040 4.392-11.373 7.546-18.539 10.106-7.168 2.533-15.306 4.204-24.414 4.204zM134.737 239.158v-29.48h20.21v-101.889h35.355v131.369h-55.565zM292.217 215.579c3.153 0 6.522-0.512 9.27-1.671 2.721-1.159 4.662-3.099 6.736-5.065 2.048-1.967 3.827-4.123 5.039-6.737s1.698-5.416 1.698-8.408c-0.027-3.019-0.485-5.819-1.698-8.433s-2.991-4.771-5.039-6.739c-2.075-1.965-4.015-3.878-6.736-5.037-2.749-1.159-6.117-1.699-9.27-1.699s-5.686 0.512-8.435 1.699c-2.721 1.159-5.498 3.072-7.572 5.037-2.075 1.968-3.827 4.125-5.066 6.739-1.213 2.615-1.671 5.414-1.671 8.433 0 2.991 0.458 5.794 1.671 8.408 1.24 2.614 2.991 4.769 5.066 6.737s4.851 3.88 7.572 5.065c2.748 1.159 5.281 1.671 8.435 1.671z" />
<glyph unicode="&#xe912;" glyph-name="fm-calendar-events" d="M134.736 512c-14.875 0-26.948-12.072-26.948-26.947-59.526 0-107.79-48.263-107.79-107.789v-269.474c0-59.501 48.263-107.789 107.79-107.789h269.473c59.529 0 107.792 48.262 107.792 107.789v269.474c0 59.526-48.262 107.789-107.792 107.789 0 14.875-12.070 26.948-26.947 26.948-14.873 0-26.947-12.073-26.947-26.948h-161.683c0 14.875-12.072 26.948-26.947 26.948zM107.788 431.158c0-14.875 12.073-26.947 26.947-26.947s26.947 12.072 26.947 26.947h161.683c0-14.875 12.074-26.947 26.947-26.947 14.877 0 26.947 12.072 26.947 26.947 29.779 0 53.897-24.118 53.897-53.894v-26.947c-51.849 0-325.418 0-377.264 0v26.947c0 29.776 24.118 53.894 53.894 53.894zM53.894 296.421c51.846 0 325.415 0 377.264 0v-188.632c0-29.721-24.118-53.894-53.897-53.894h-269.473c-29.777 0-53.895 24.118-53.895 53.894v188.632zM269.473 242.526c-14.875 0-26.947-12.072-26.947-26.947s12.072-26.948 26.947-26.948h80.841c14.877 0 26.947 12.074 26.947 26.948s-12.070 26.947-26.947 26.947h-80.841zM134.736 161.683c-14.875 0-26.948-12.070-26.948-26.947 0-14.873 12.073-26.947 26.948-26.947h80.842c14.875 0 26.947 12.074 26.947 26.947 0 14.877-12.072 26.947-26.947 26.947h-80.842z" />
<glyph unicode="&#xe913;" glyph-name="fm-camera" d="M179.2 512c-6.784 0-12.799-2.406-17.613-7.194l-43.981-44.006c-7.347 0-15.207 0-15.207 0-56.55 0-102.4-45.849-102.4-102.4v-230.4c0-56.55 45.849-102.4 102.4-102.4h307.2c56.55 0 102.4 45.849 102.4 102.4v230.4c0 56.55-45.849 102.4-102.4 102.4h-14.387l-44.007 44.006c-4.813 4.787-11.623 7.194-18.406 7.194h-153.6zM190.412 460.8h131.994l43.981-44.006c4.813-4.787 10.829-7.194 17.613-7.194h25.6c28.288 0 51.2-22.912 51.2-51.2v-230.4c0-28.288-22.912-51.2-51.2-51.2h-307.2c-28.288 0-51.2 22.912-51.2 51.2v230.4c0 28.288 22.912 51.2 51.2 51.2h25.6c6.784 0 13.594 2.406 18.406 7.194l44.006 44.006zM256 384c-70.681 0-128-57.318-128-128s57.319-128 128-128c70.682 0 128 57.318 128 128s-57.318 128-128 128zM409.6 384c-14.131 0-25.6-11.469-25.6-25.6s11.469-25.6 25.6-25.6c14.131 0 25.6 11.469 25.6 25.6s-11.469 25.6-25.6 25.6zM256 332.8c42.419 0 76.8-34.381 76.8-76.8s-34.381-76.8-76.8-76.8c-42.419 0-76.8 34.381-76.8 76.8s34.381 76.8 76.8 76.8z" />
<glyph unicode="&#xe914;" glyph-name="fm-can" d="M268.799 512c-113.382-0.154-204.799-25.6-204.799-76.8 0-1.229 0-3.2 0-3.2l46.387-343.193c10.035-50.381 57.344-88.807 107.213-88.807h102.399c49.87 0 96.641 38.425 106.394 87.193l47.203 344.806c0 0 0 1.971 0 3.2 0 51.2-91.414 76.928-204.798 76.8zM268.799 460.799c45.926 0 89.063-5.555 120.010-14.412 12.109-3.456 19.817-7.373 26.397-11.188-6.579-3.815-14.288-7.731-26.397-11.213-30.947-8.832-74.084-14.387-120.010-14.387s-89.062 5.555-120.012 14.387c-12.109 3.482-19.968 7.398-26.394 11.213 6.579 3.815 14.285 7.731 26.394 11.188 30.95 8.858 74.086 14.412 120.012 14.412zM123.187 377.6c36.915-12.826 88.396-19.2 145.612-19.2s108.698 6.375 145.611 19.2l-38.397-282.394c-4.685-23.168-30.438-44.007-56.014-44.007h-102.399c-25.575 0-51.839 20.839-56.806 45.594l-37.606 280.806z" />
<glyph unicode="&#xe915;" glyph-name="fm-caret-down" d="M118.556 352c-18.836 0-29.162-17.963-17.858-30.624 17.145-19.212 120.009-134.483 137.156-153.696 9.144-10.24 27.288-10.24 36.431 0l137.155 153.696c11.303 12.661 0.265 30.624-18.573 30.624h-274.312z" />
<glyph unicode="&#xe916;" glyph-name="fm-caret-up" d="M393.443 160c18.839 0 29.161 17.962 17.859 30.624-17.146 19.212-120.010 134.484-137.156 153.696-9.144 10.24-27.287 10.24-36.431 0l-137.156-153.696c-11.302-12.663-0.266-30.624 18.573-30.624h274.312z" />
<glyph unicode="&#xe917;" glyph-name="fm-case" d="M262.399 512c-56.55 0-102.399-45.85-102.399-102.4-37.99 0-99.2 0-102.4 0-14.131 0-25.6-11.469-25.6-25.6v-281.6c0-56.55 45.849-102.4 102.4-102.4h256c56.55 0 102.4 45.849 102.4 102.4v281.6c0 14.131-11.469 25.6-25.6 25.6-3.2 0-64.409 0-102.4 0 0 56.55-45.85 102.4-102.4 102.4zM262.399 460.8c28.288 0 51.2-22.912 51.2-51.2-46.695 0-55.705 0-102.399 0 0 28.288 22.911 51.2 51.2 51.2zM83.2 358.4c14.080 0 63.77 0 102.4 0 57.958 0 95.642 0 153.6 0 38.63 0 88.32 0 102.4 0v-256c0-28.288-22.912-51.2-51.2-51.2h-256c-28.288 0-51.2 22.912-51.2 51.2v256z" />
<glyph unicode="&#xe918;" glyph-name="fm-check-circle" d="M256 512c-141.383 0-256-114.611-256-256s114.617-256 256-256c141.385 0 256 114.611 256 256s-114.615 256-256 256zM256 460.8c113.11 0 204.799-91.699 204.799-204.8s-91.69-204.8-204.799-204.8c-113.108 0-204.8 91.699-204.8 204.8s91.692 204.8 204.8 204.8zM358.4 332.8c-6.55 0-13.401-2.202-18.4-7.194l-95.2-96c-6.6-6.605-13.222-5.375-18.399 2.382l-25.6 38.4c-7.844 11.776-24.236 15.053-36.001 7.219-11.763-7.859-15.042-24.243-7.202-35.994l25.6-38.4c23.102-34.662 68.155-39.065 97.602-9.625l96.002 95.206c9.997 10.010 9.997 26.803 0 36.813-5.002 4.992-11.853 7.194-18.403 7.194z" />
<glyph unicode="&#xe919;" glyph-name="fm-chevron-down" d="M256 512c-141.4 0-256-114.6-256-256s114.6-256 256-256c141.399 0 256 114.601 256 256s-114.601 256-256 256zM135 271c-9.4 9.401-9.4 24.601 0 33.9 9.4 9.3 24.6 9.4 33.9 0l86.999-86.999 87 87c9.401 9.4 24.601 9.4 33.901 0s9.399-24.599 0-33.901l-103.8-104c-9.401-9.399-24.601-9.399-33.901 0l-104.1 104z" />
<glyph unicode="&#xe91a;" glyph-name="fm-chevron-left" d="M512 256c0 141.4-114.601 256-256 256s-256-114.6-256-256c0-141.399 114.6-256 256-256s256 114.601 256 256zM271 377c9.401 9.4 24.599 9.4 33.901 0 9.299-9.4 9.399-24.6 0-33.9l-87-87 87-87c9.399-9.401 9.399-24.601 0-33.901s-24.599-9.399-33.901 0l-104 103.8c-9.4 9.401-9.4 24.6 0 33.901l104 104.1z" />
<glyph unicode="&#xe91b;" glyph-name="fm-chevron-right" d="M0 256c0-141.399 114.6-256 256-256s256 114.601 256 256c0 141.4-114.601 256-256 256s-256-114.6-256-256zM241 135c-9.399-9.399-24.6-9.399-33.9 0s-9.4 24.599 0 33.901l86.999 87-87 87c-9.4 9.4-9.4 24.6 0 33.9s24.6 9.4 33.9 0l104-103.8c9.399-9.399 9.399-24.599 0-33.901l-104-104.101z" />
<glyph unicode="&#xe91c;" glyph-name="fm-chevron-up" d="M256 0c141.399 0 256 114.601 256 256s-114.601 256-256 256c-141.4 0-256-114.6-256-256s114.6-256 256-256zM377 241c9.399-9.401 9.399-24.601 0-33.901s-24.599-9.399-33.901 0l-87 87-87-87c-9.4-9.399-24.6-9.399-33.9 0s-9.4 24.599 0 33.901l103.799 104c9.401 9.4 24.601 9.4 33.901 0l104.101-104z" />
<glyph unicode="&#xe91d;" glyph-name="fm-circle" d="M0 256c0 141.291 114.71 256 256 256s256-114.709 256-256c0-141.291-114.709-256-256-256s-256 114.709-256 256z" />
<glyph unicode="&#xe91e;" glyph-name="fm-circle-check-outside" d="M255.853 512c-141.308 0-255.853-114.546-255.853-255.853 0-141.309 114.546-255.853 255.853-255.853 129.974 0 239.069 97.43 254.266 225.458 1.639 14.046-8.365 27.12-22.413 28.808-14.019 1.637-27.12-8.366-28.755-22.412-12.154-102.341-99.12-180.683-203.097-180.683-113.036 0-204.683 91.645-204.683 204.681s91.647 204.682 204.683 204.682c23.615 0 47-4.273 68.774-12 13.303-4.708 27.248 2.687 31.981 15.99 4.707 13.33-1.894 28.067-15.197 32.8-27.224 9.645-56.11 14.379-85.558 14.379zM486.122 460.829c-6.55 0-13.408-2.303-18.397-7.19l-223.078-219.88c-6.576-6.473-13.202-5.219-18.37 2.405l-25.585 37.584c-7.829 11.539-24.255 14.891-35.973 7.19-11.744-7.701-15.044-23.641-7.214-35.18l25.585-37.584c23.052-34.002 68.159-38.505 97.556-9.594l223.87 219.062c9.981 9.825 9.981 26.173 0 35.998-4.989 4.913-11.843 7.19-18.394 7.19z" />
<glyph unicode="&#xe91f;" glyph-name="fm-circle-close" d="M256 512c-142.629 0-256-113.371-256-256s113.371-256 256-256c142.629 0 256 113.371 256 256s-113.371 256-256 256zM354.743 128l-98.743 98.743-98.743-98.743-29.257 29.257 98.743 98.743-98.743 98.743 29.257 29.257 98.743-98.743 98.744 98.743 29.257-29.257-98.743-98.743 98.743-98.743-29.257-29.257z" />
<glyph unicode="&#xe920;" glyph-name="fm-circle-inside" d="M256 512c-141.376 0-256-114.624-256-256s114.624-256 256-256c141.376 0 256 114.624 256 256s-114.624 256-256 256zM256 460.8c113.088 0 204.8-91.712 204.8-204.8s-91.712-204.8-204.8-204.8c-113.12 0-204.8 91.712-204.8 204.8s91.68 204.8 204.8 204.8zM128 256c0 70.656 57.344 128 128 128s128-57.344 128-128c0-70.656-57.344-128-128-128s-128 57.344-128 128z" />
<glyph unicode="&#xe921;" glyph-name="fm-circle-outlined" d="M256 512c-141.383 0-256-114.611-256-256s114.617-256 256-256c141.389 0 256 114.611 256 256s-114.611 256-256 256zM256 460.8c113.101 0 204.799-91.699 204.799-204.8s-91.699-204.8-204.799-204.8c-113.108 0-204.8 91.699-204.8 204.8s91.692 204.8 204.8 204.8z" />
<glyph unicode="&#xe922;" glyph-name="fm-clip" horiz-adv-x="439" d="M258.65 488.762c-46.007 0-91.648-17.554-126.757-52.589l-51.907-51.81c-9.558-9.508-9.558-24.747 0-34.279 9.533-9.508 24.82-9.508 34.353 0l51.908 51.81c51.127 51.029 133.656 51.005 184.783 0l0.756-0.756c51.127-51.004 51.127-133.363 0-184.392l-144.286-143.994c-30.915-30.817-79.872-29.745-110.299-0.659l-1.561 1.755c-30.891 30.842-30.403 80.652 0.488 111.494l140.386 139.605c10.679 10.654 27.477 10.654 38.156 0s10.679-27.429 0-38.107l-145.944-146.237c-9.558-9.533-9.558-25.527 0-35.060 9.533-9.509 25.527-8.606 34.475-0.024l146.602 146.286c29.769 29.696 29.769 78.482 0 108.178-14.873 14.873-34.719 22.113-54.223 22.113s-39.327-7.24-54.199-22.113l-143.945-144.774c-2.511-2.511-4.364-5.291-6.974-8.411-37.718-50.029-34.986-122.417 10.655-167.96 49.981-49.884 130.755-50.249 180.736-0.365l144.286 143.994c70.217 70.071 70.217 183.661 0 253.707-35.084 35.036-81.481 52.589-127.488 52.589z" />
<glyph unicode="&#xe923;" glyph-name="fm-clipboard" d="M256 512c-35.303 0-63.821-22.759-72.806-55.194-23.168-6.425-44.903-27.546-50.381-47.206h-30.412c-56.55 0-102.4-45.85-102.4-102.4v-204.8c0-56.55 45.849-102.4 102.4-102.4h307.2c56.55 0 102.4 45.849 102.4 102.4v204.8c0 56.55-45.849 102.4-102.4 102.4h-28.8c-9.6 23.091-28.032 41.574-51.2 48-8.986 32.435-38.298 54.4-73.6 54.4zM256 460.8c14.131 0 25.6-11.469 25.6-25.6s11.469-25.6 25.601-25.6c14.13 0 25.599-11.469 25.599-25.6s-11.469-25.6-25.599-25.6h-102.4c-14.131 0-25.6 11.469-25.6 25.6s11.469 25.6 25.6 25.6c14.131 0 25.6 11.469 25.6 25.6s11.469 25.6 25.6 25.6zM102.4 358.4h30.412c10.496-31.565 39.526-51.2 71.988-51.2h102.401c32.46 0 59.776 18.483 72.806 51.2h29.594c28.288 0 51.2-22.912 51.2-51.2v-204.8c0-28.288-22.912-51.2-51.2-51.2h-307.2c-28.288 0-51.2 22.912-51.2 51.2v204.8c0 28.288 22.912 51.2 51.2 51.2z" />
<glyph unicode="&#xe924;" glyph-name="fm-clipboard-check" d="M256 512c-35.303 0-63.821-22.759-72.806-55.194-23.168-6.425-44.903-27.546-50.381-47.206h-30.412c-56.55 0-102.4-45.85-102.4-102.4v-204.8c0-56.55 45.849-102.4 102.4-102.4h307.2c56.55 0 102.4 45.849 102.4 102.4v204.8c0 56.55-45.849 102.4-102.4 102.4h-28.8c-9.6 23.091-28.032 41.574-51.2 48-8.986 32.435-38.298 54.4-73.6 54.4zM256 460.8c14.131 0 25.6-11.469 25.6-25.6s11.469-25.6 25.601-25.6c14.13 0 25.599-11.469 25.599-25.6s-11.469-25.6-25.599-25.6h-102.4c-14.131 0-25.6 11.469-25.6 25.6s11.469 25.6 25.6 25.6c14.131 0 25.6 11.469 25.6 25.6s11.469 25.6 25.6 25.6zM102.4 358.4h30.412c10.496-31.565 39.526-51.2 71.988-51.2h102.401c32.46 0 59.776 18.483 72.806 51.2h29.594c28.288 0 51.2-22.912 51.2-51.2v-204.8c0-28.288-22.912-51.2-51.2-51.2h-307.2c-28.288 0-51.2 22.912-51.2 51.2v204.8c0 28.288 22.912 51.2 51.2 51.2zM332.8 256c-6.553 0-13.388-2.202-18.406-7.193l-83.994-83.993-32.793 32.793c-10.010 9.985-26.803 9.985-36.813 0-9.984-10.010-9.984-26.803 0-36.813l51.2-51.2c10.010-9.984 26.803-9.984 36.813 0l102.399 102.4c9.984 10.010 9.984 26.803 0 36.813-5.017 4.992-11.853 7.193-18.406 7.193z" />
<glyph unicode="&#xe925;" glyph-name="fm-clock" d="M256 512.001c-141.383 0-256-114.611-256-256s114.614-256.001 256-256.001c141.382 0 256 114.611 256 256.002 0 141.389-114.618 256-256 256zM256 460.801c113.107 0 204.8-91.699 204.8-204.8s-91.693-204.801-204.8-204.801c-113.108 0-204.8 91.699-204.8 204.801 0 113.101 91.692 204.8 204.8 204.8zM256 409.601c-14.139 0-25.6-11.469-25.6-25.6v-128c0-6.784 2.399-13.593 7.198-18.406l76.8-76.801c9.998-9.984 26.805-9.984 36.801 0 9.997 10.010 9.997 26.803 0 36.814l-69.6 69.606v116.787c0 14.131-11.461 25.6-25.6 25.6z" />
<glyph unicode="&#xe926;" glyph-name="fm-cog" d="M178.378 500.341c-36.301-11.52-67.609-30.311-95.206-56.013-8.525-7.936-11.135-20.941-5.606-31.181 20.505-37.913-0.948-78.489-47.206-80.819-11.316-0.563-21.325-8.96-23.987-19.994-4.582-19.072-6.4-35.046-6.4-55.987 0-17.586 1.894-37.503 5.606-55.218 2.304-11.059 11.93-19.021 23.194-19.993 46.541-4.019 69.581-39.526 48.794-84.787-4.608-10.061-2.509-22.093 5.606-29.619 27.187-25.139 58.419-42.88 95.206-54.4 10.496-3.277 22.349 0.691 28.8 9.6 28.467 39.399 69.76 39.526 96.794 0 6.375-9.293 18.048-13.773 28.8-10.394 35.507 11.187 68.582 30.208 96 55.193 8.448 7.705 10.675 20.173 5.606 30.413-21.299 42.983 3.2 82.432 47.181 83.2 11.673 0.205 22.067 7.859 24.807 19.2 4.429 18.355 5.606 34.329 5.606 56.805 0 19.303-2.279 38.323-6.4 56.781-2.611 11.699-12.825 19.994-24.807 20.019-43.289 0.077-67.558 42.624-46.387 80 5.888 10.394 4.045 23.142-4.813 31.181-27.904 25.344-61.926 45.159-97.587 56.013-10.957 3.328-22.605-0.768-28.8-10.394-24.73-38.425-70.912-39.091-95.207-0.819-6.221 9.83-18.535 14.72-29.594 11.213zM333.975 445.966c17.485-7.322 31.283-14.976 47.13-26.983-18.586-58.803 12.928-119.885 78.208-134.758 1.613-10.573 1.459-16.973 1.459-27.879 0-13.029 0.179-17.612-1.305-27.032-64.999-13.466-97.152-72.834-79.053-135.58-15.565-11.289-26.701-19.12-46.233-26.673-45.875 46.695-109.567 48.743-156.416-0.31-18.279 8.038-32.333 15.183-46.541 27.19 17.613 63.719-12.16 118.733-78.26 135.424-2.944 11.673-1.767 44.645-0.077 54.654 68.352 16.384 95.284 76.877 78.31 135.143 15.001 11.289 28.493 19.507 46.029 26.623 44.16-44.928 110.464-49.407 156.749 0.18zM255.972 358.747c-56.55 0-102.4-45.849-102.4-102.4 0-56.575 45.85-102.399 102.4-102.399s102.4 45.824 102.4 102.399c0 56.55-45.849 102.4-102.4 102.4zM255.972 307.547c28.288 0 51.2-22.938 51.2-51.2 0-28.287-22.912-51.199-51.2-51.199s-51.2 22.912-51.2 51.199c0 28.262 22.912 51.2 51.2 51.2z" />
<glyph unicode="&#xe927;" glyph-name="fm-contract" d="M268.8 512c-14.131 0-25.6-11.469-25.6-25.6v-76.8h-76.8l102.4-102.4 102.4 102.4h-76.8v76.8c0 14.131-11.469 25.6-25.6 25.6zM89.6 281.6c-14.131 0-25.6-11.469-25.6-25.6s11.469-25.6 25.6-25.6h358.4c14.131 0 25.6 11.469 25.6 25.6s-11.469 25.6-25.6 25.6h-358.4zM268.8 204.8l-102.4-102.4h76.8v-76.8c0-14.131 11.469-25.6 25.6-25.6s25.6 11.469 25.6 25.6v76.8h76.8l-102.4 102.4z" />
<glyph unicode="&#xe928;" glyph-name="fm-copy" d="M102.4 512c-56.55 0-102.4-45.847-102.4-102.4v-204.8c0-56.55 45.849-102.4 102.4-102.4l0.257-0.128c5.939-57.063 54.732-102.272 113.357-102.272 8.218 0 73.728 0 91.187 0 90.931 0 204.8 113.869 204.8 204.8 0 17.459 0 78.515 0 91.187 0 58.632-45.184 107.615-102.246 113.556l-0.154 0.057c0 56.553-45.849 102.4-102.4 102.4h-204.8zM102.4 460.8h204.8c28.288 0 51.2-22.922 51.2-51.2h-142.387c-62.618 0-113.614-50.988-113.614-113.613v-142.387c-28.288 0-51.2 22.912-51.2 51.2v204.8c0 28.278 22.912 51.2 51.2 51.2zM216.013 358.4h182.375c34.355 0 62.413-28.065 62.413-62.413 0-9.113 0-40.627 0-65.587-24.755 0-57.395 0-65.587 0-62.618 0-113.613-50.995-113.613-113.613v-65.587c-25.984 0-59.673 0-65.587 0-34.356 0-62.413 28.058-62.413 62.413v182.375c0 34.35 28.057 62.413 62.413 62.413zM395.213 179.2c7.194 0 37.043 0.051 61.005 0.051-15.846-50.611-72.295-106.24-123.238-123.699l-0.179 61.235c0 34.355 28.058 62.413 62.413 62.413z" />
<glyph unicode="&#xe929;" glyph-name="fm-doc" d="M155.187 512c-49.946 0-91.187-37.888-91.187-85.606v-340.787c0-47.719 41.242-85.606 91.187-85.606h227.226c49.945 0 91.187 37.888 91.187 85.606 0 16.666 0 199.629 0 247.194 0 0.256 0 0.537 0 0.793 0 91.213-88.038 178.406-179.201 178.406-107.878 0-108.134 0-139.213 0zM155.187 460.8c25.369 0 54.067 0 113.613 0v-67.993c0-47.719 41.242-85.607 91.188-85.607h62.413c0-64.947 0-206.643 0-221.594 0-18.279-17.255-34.406-39.987-34.406h-227.226c-22.733 0-39.987 16.128-39.987 34.406v340.787c0 18.279 17.254 34.406 39.987 34.406zM320 457.6c45.364-12.032 87.45-53.965 99.201-99.2h-59.213c-22.759 0-39.988 16.128-39.988 34.407v64.793zM192 358.4c-14.131 0-25.6-11.469-25.6-25.6s11.469-25.6 25.6-25.6h25.6c14.131 0 25.6 11.469 25.6 25.6s-11.469 25.6-25.6 25.6h-25.6zM192 256c-14.131 0-25.6-11.469-25.6-25.6s11.469-25.6 25.6-25.6h153.601c14.131 0 25.6 11.469 25.6 25.6s-11.469 25.6-25.6 25.6h-153.601zM192 153.6c-14.131 0-25.6-11.469-25.6-25.6s11.469-25.6 25.6-25.6h153.601c14.131 0 25.6 11.469 25.6 25.6s-11.469 25.6-25.6 25.6h-153.601z" />
<glyph unicode="&#xe92a;" glyph-name="fm-double-check" d="M287.942 362.667c-8.182 0-16.714-2.749-22.978-8.98l-150.798-151.791c-8.213-8.245-16.49-6.709-22.945 2.971l-31.956 47.934c-9.81 14.701-30.262 18.791-44.931 9.011-14.7-9.811-18.79-30.261-9.011-44.93l31.956-47.934c28.856-43.269 85.066-48.764 121.848-12.015l151.791 150.8c12.463 12.494 12.463 33.458 0 45.952-6.264 6.232-14.797 8.98-22.976 8.98zM479.675 362.667c-8.179 0-16.712-2.749-22.976-8.98l-150.799-151.791c-8.214-8.245-16.49-6.709-22.944 2.971l-13.997 20.994-46.912-46.942 6.968-9.971c28.856-43.269 85.067-48.764 121.848-12.015l151.791 150.8c12.461 12.494 12.461 33.458 0 45.952-6.264 6.232-14.797 8.98-22.978 8.98z" />
<glyph unicode="&#xe92b;" glyph-name="fm-double-plane" d="M252.644 479.996c-19.375-0.153-39.167-5.35-54.395-15.998l-187.184-129.627c-14.768-10.162-14.742-31.409 0-41.622l62.394-43.209-62.395-43.209c-14.736-10.162-14.716-31.408 0-41.596l187.184-129.625c30.638-20.839 77.914-21.197 108.79-0.819l193.582 129.625c15.162 10.163 15.181 32.305 0 42.416l-63.993 42.415 63.993 43.209c15.117 10.163 15.143 33.072 0 43.209l-194.382 129.627c-15.279 10.392-34.219 15.358-53.594 15.205zM252.644 428.775c9.259 0.077 19.022-1.919 25.598-6.399l161.585-108.815-63.993-43.209-97.591-65.607c-13.536-8.959-38.061-8.933-51.195 0-11.581 8.038-82.594 57.39-94.392 65.607l-62.394 43.209 157.584 108.022c6.609 4.633 15.541 7.116 24.799 7.192zM117.455 219.131h0.802c22.838-15.87 69.969-49.044 79.993-56.007 30.673-20.861 77.919-21.194 108.79-0.793l83.191 56.007 49.597-33.611-161.586-108.022c-13.575-8.957-38.059-8.931-51.195 0l-156.786 108.816 47.195 33.611z" />
<glyph unicode="&#xe92c;" glyph-name="fm-download" d="M242.526 512c-14.875 0-26.947-12.065-26.947-26.947v-269.474h-80.842l107.79-107.79 107.79 107.79h-80.843v269.474c0 14.883-12.072 26.95-26.947 26.947zM26.948 188.63c-14.883 0-26.948-12.070-26.948-26.947v-53.894c0-59.526 48.26-107.789 107.79-107.789h269.475c59.526 0 107.789 48.262 107.789 107.789v53.894c0 14.877-12.074 26.947-26.947 26.947-14.877 0-26.947-12.070-26.947-26.947v-53.894c0-29.776-24.118-53.894-53.894-53.894h-269.474c-29.766 0-53.895 24.118-53.895 53.894v53.894c0 14.877-12.065 26.947-26.948 26.947z" />
<glyph unicode="&#xe92d;" glyph-name="fm-empty-folder" d="M80.785 499.2c-43.382 0-80.409-34.657-80.786-80.786v-296.216c0-29.998 12.199-57.035 31.991-76.585 9.64-9.506 20.977-17.37 33.661-22.728 13.007-5.466 27.413-8.402 42.063-8.402h242.358c28.384 0 54.935 10.906 74.889 30.295 10.717 10.395 22.997 40.986 44.621 104.349 1.724 5.117 40.69 125.3 41.228 127.077 5.332 17.315-7.971 34.496-26.094 34.496-3.366 0-21.166 0-26.928 0v26.928c0 44.621-36.165 80.786-80.786 80.786h-53.858c-22.755 0-28.894 5.036-44.594 28.599-24.694 37.027-45.483 52.188-90.050 52.188-23.562 0-84.153 0-107.715 0zM80.785 445.342c23.563 0 84.153 0 107.715 0 22.755 0 28.894-5.035 44.594-28.598 24.694-37.027 45.482-52.188 90.050-52.188h53.858c14.865 0 26.928-12.064 26.928-26.928v-26.928c-93.416 0-235.627 0-269.288 0-11.149 0-21.246-7.244-25.26-17.666 0 0-31.183-81.459-55.527-144.742v270.122c0.135 15.538 12.387 26.93 26.928 26.93zM153.17 256.841c52.081 0 295.382 0.107 295.382 0.107l-44.998-134.939c0 0-10.717-29.783-16.075-37.862-6.544-9.856-23.186-15.808-37.405-15.808h-242.358c-8.725 0-16.75 1.831-24.209 5.682 54.208 141.537 69.207 181.661 69.665 182.819z" />
<glyph unicode="&#xe92e;" glyph-name="fm-excel" d="M52.156 469.812l294.599 42.069c1.664 0.239 3.357 0.117 4.969-0.357s3.101-1.288 4.371-2.389c1.271-1.1 2.288-2.46 2.986-3.988s1.056-3.188 1.056-4.868v-488.565c0-1.677-0.358-3.334-1.056-4.861-0.695-1.526-1.712-2.883-2.979-3.984-1.264-1.101-2.752-1.913-4.361-2.39-1.61-0.474-3.299-0.598-4.96-0.365l-294.649 42.070c-5.587 0.793-10.699 3.581-14.398 7.843s-5.734 9.715-5.734 15.357v381.224c0 5.643 2.036 11.097 5.734 15.359s8.834 7.048 14.421 7.843zM78.897 426.267v-340.536l234.368-33.491v407.518l-234.368-33.491zM383.575 91.939h70.31v328.117h-70.31v46.873h93.747c6.217 0 12.179-2.469 16.573-6.864 4.397-4.395 6.864-10.357 6.864-16.572v-374.99c0-6.214-2.467-12.176-6.864-16.57-4.394-4.397-10.355-6.867-16.573-6.867h-93.747v46.873zM224.205 255.998l65.623-93.749h-56.249l-37.499 53.578-37.499-53.578h-56.249l65.623 93.749-65.623 93.747h56.248l37.499-53.577 37.499 53.577h56.248l-65.623-93.747z" />
<glyph unicode="&#xe92f;" glyph-name="fm-expand" d="M268.8 512l-102.4-102.4h76.8v-76.8c0-14.131 11.469-25.6 25.6-25.6s25.6 11.469 25.6 25.6v76.8h76.8l-102.4 102.4zM89.6 281.6c-14.131 0-25.6-11.469-25.6-25.6s11.469-25.6 25.6-25.6h358.4c14.131 0 25.6 11.469 25.6 25.6s-11.469 25.6-25.6 25.6h-358.4zM268.8 204.8c-14.131 0-25.6-11.469-25.6-25.6v-76.8h-76.8l102.4-102.4 102.4 102.4h-76.8v76.8c0 14.131-11.469 25.6-25.6 25.6z" />
<glyph unicode="&#xe930;" glyph-name="fm-eye" horiz-adv-x="630" d="M315.077 512c-93.353 0-172.003-45.872-236.615-121.272-22.115-25.776-41.455-53.318-57.198-80.828-9.496-16.658-15.301-29.529-18.709-37.479-3.408-7.918-3.408-17.699 0-25.618 3.408-7.95 9.213-20.822 18.709-37.479 15.743-27.51 35.082-55.053 57.198-80.828 64.612-75.4 143.262-121.272 236.615-121.272s172.005 45.872 236.615 121.272c22.083 25.776 41.456 53.317 57.167 80.828 9.527 16.658 15.332 29.529 18.739 37.479 3.407 7.919 3.407 17.7 0 25.618-3.407 7.95-9.212 20.822-18.739 37.479-15.711 27.511-35.084 55.053-57.167 80.828-64.611 75.401-143.262 121.272-236.615 121.272zM315.077 448.902c72.278 0 135.597-36.943 189.291-99.567 19.31-22.526 35.43-46.755 49.282-70.985 4.888-8.549 7.003-12.966 9.874-18.74-2.871-5.773-4.986-10.19-9.874-18.739-13.851-24.229-29.971-48.459-49.282-70.984-53.693-62.623-117.012-99.566-189.291-99.566s-135.596 36.943-189.292 99.566c-19.308 22.526-35.429 46.755-49.31 70.985-4.859 8.55-6.972 12.966-9.843 18.74 2.871 5.774 4.984 10.19 9.843 18.739 13.882 24.229 30.003 48.459 49.31 70.984 53.696 62.624 117.014 99.567 189.292 99.567zM315.077 385.806c-69.691 0-126.195-56.503-126.195-126.195s56.504-126.194 126.195-126.194c69.691 0 126.196 56.503 126.196 126.194 0 17.414-14.135 31.548-31.551 31.548-17.414 0-31.548-14.134-31.548-31.548 0-34.861-28.267-63.097-63.098-63.097-34.861 0-63.097 28.236-63.097 63.097s28.236 63.098 63.097 63.098c7.729 0 15.648-1.293 22.683-3.944 16.279-6.152 34.262 2.429 40.414 18.74 6.152 16.279-2.429 34.262-18.74 40.414-14.134 5.332-28.993 7.887-44.358 7.887z" />
<glyph unicode="&#xe931;" glyph-name="fm-eye-slashed" horiz-adv-x="630" d="M315.077 512c-93.353 0-172.003-45.873-236.615-121.274-22.084-25.775-41.455-53.317-57.166-80.827-9.527-16.626-15.332-29.53-18.739-37.481-3.408-7.918-3.408-17.699 0-25.617 3.408-7.95 9.212-20.822 18.739-37.481 15.711-27.51 35.083-55.051 57.166-80.827 9.496-11.074 19.813-22.086 30.002-31.802l-35.366-35.080c-12.304-12.304-12.966-32.591-0.662-44.894 12.335-12.336 32.148-12.938 44.484-0.63l153.799 154.808 134.084 133.072 153.797 153.799c12.304 12.335 12.304 33.032 0 45.368-6.152 6.152-14.604 8.865-22.682 8.865s-16.466-3.881-22.654-10.033l-39.531-40.066c-47.1 31.359-101.933 50.099-158.657 50.099zM315.077 448.902c39.404 0 78.335-11.925 112.565-32.432l-47.733-48.427c-18.866 10.884-42.37 17.762-64.832 17.762-69.691 0-126.195-56.504-126.195-126.195 0-22.62 7.414-45.557 18.329-64.391l-54.548-53.475c-9.306 8.771-18.392 18.267-26.879 28.142-19.308 22.526-35.429 46.755-49.279 70.984-4.89 8.55-7.004 12.967-9.874 18.741 2.871 5.805 4.984 10.19 9.874 18.739 13.85 24.23 29.971 48.459 49.279 70.985 53.696 62.624 117.014 99.567 189.293 99.567zM565.512 359.178c-7.952 1.514-16.471 0.001-23.663-4.921-14.418-9.812-17.731-28.993-7.889-43.38 10.697-15.712 19.972-31.834 27.605-46.346 1.201-2.272 0.981-2.997 1.957-4.921-2.871-5.774-4.986-10.191-9.842-18.741-13.883-24.229-30.003-48.459-49.313-70.984-53.693-62.623-117.012-99.565-189.291-99.565-7.824 0-24.419 1.544-40.414 3.942-17.226 2.587-32.905-9.37-35.492-26.628-2.587-17.227 9.37-32.906 26.627-35.493 19.119-2.871 37.26-4.919 49.279-4.919 93.353 0 172.005 45.871 236.615 121.272 22.115 25.776 41.456 53.317 57.198 80.827 9.495 16.657 15.301 29.53 18.707 37.481 3.407 7.918 3.407 17.699 0 25.617-7.255 16.973-20.571 43.38-41.393 73.951-4.919 7.193-12.777 11.325-20.692 12.808zM315.077 322.708c4.858 0 12.651-1.041 17.226-2.114l-77.736-77.325c-2.555 7.004-2.587 11.515-2.587 16.342 0 34.862 28.267 63.098 63.097 63.098z" />
<glyph unicode="&#xe932;" glyph-name="fm-file-pdf" d="M294.065 480c11.269-0.003 22.178-3.971 30.815-11.208l3.12-2.856 105.936-105.936c7.968-7.969 12.88-18.486 13.872-29.712l0.192-4.224v-278.064c0.007-12.109-4.57-23.773-12.803-32.653s-19.52-14.32-31.597-15.229l-3.6-0.118h-287.999c-12.11-0.003-23.773 4.57-32.653 12.803s-14.319 19.52-15.227 31.597l-0.12 3.6v384c-0.004 12.11 4.57 23.774 12.804 32.653s19.52 14.318 31.596 15.227l3.6 0.12h182.064zM256.001 432h-144v-384h287.999v240h-107.999c-8.949 0-17.577 3.334-24.202 9.351s-10.771 14.286-11.63 23.193l-0.168 3.456v108zM279.713 243.648c5.752-36.551 24.866-69.667 53.641-92.928 21.286-17.209 1.824-50.903-23.712-41.088-34.526 13.286-72.754 13.286-107.28 0-25.56-9.84-45.024 23.878-23.736 41.088 28.775 23.261 47.891 56.377 53.64 92.928 4.272 27.048 43.2 27.024 47.448 0zM255.953 188.352l-16.512-28.704h33.12l-16.608 28.704zM304.001 422.064v-86.064h86.063l-86.063 86.064z" />
<glyph unicode="&#xe933;" glyph-name="fm-forward-fast" horiz-adv-x="585" d="M555.885 499.806c16.15 0 29.257-13.106 29.257-29.255v-409.575c0-16.15-13.107-29.257-29.257-29.257-16.146 0-29.254 13.107-29.254 29.257v151.776l-159.060-159.091c0 0-4.39-5.12-8.252-8.221-10.005-8.134-23.141-13.634-37.476-13.721-31.8-0.205-58.277 25.892-58.511 58.514-0.029 3.332 0 67.87 0 122.519l-159.076-159.091c0 0-4.386-5.12-8.227-8.221-10.008-8.134-23.15-13.634-37.486-13.721-31.803-0.205-58.271 25.892-58.511 58.514-0.070 9.534-0.014 343.193 0 351.063-0.36 32.152 25.832 58.218 58.511 58.511 12.544 0.117 23.566-3.686 32.913-10.064 4.233-2.867 7.507-5.441 10.058-8.221l161.817-162.719c0 54.474 0 119.743 0 122.493-0.351 32.152 25.832 58.218 58.511 58.511 12.55 0.117 23.58-3.686 32.912-10.063 4.243-2.867 7.519-5.442 10.064-8.221l161.812-162.719v151.748c0 16.149 13.107 29.255 29.254 29.255zM321.844 441.296v-351.063l175.531 175.531-175.531 175.533zM58.545 441.296v-351.063l175.532 175.531-175.532 175.533z" />
<glyph unicode="&#xe934;" glyph-name="fm-geo-pin" d="M268.8 512c-70.692 0-128-57.319-128-128 0-23.962 11.318-53.427 32-88.807 6.889-11.776 15.45-23.398 24-35.993 11.53-16.998 23.693-34.509 36.007-50.406 2.816-3.61 6.605-8.653 10.393-13.594v-67.2c0-14.131 11.469-25.6 25.6-25.6s25.6 11.469 25.6 25.6v67.2c3.789 4.941 7.577 9.984 10.394 13.594 12.313 15.872 24.474 33.408 35.993 50.406 8.55 12.595 17.127 24.218 24.013 35.993 20.685 35.379 32 64.845 32 88.807 0 70.681-57.319 128-128 128zM268.8 460.8c42.419 0 76.8-34.381 76.8-76.8 0-12.185-9.241-34.432-25.6-62.413-6.272-10.701-12.851-22.682-20.787-34.381-9.575-14.106-20.122-27.366-30.413-40.807-10.291 13.44-20.813 26.701-30.413 40.807-7.936 11.699-14.515 23.68-20.787 34.381-16.353 27.981-25.6 50.227-25.6 62.413 0 42.419 34.381 76.8 76.8 76.8zM268.8 409.6c-14.131 0-25.6-11.469-25.6-25.6s11.469-25.6 25.6-25.6c14.131 0 25.6 11.469 25.6 25.6s-11.469 25.6-25.6 25.6zM157.599 212.788c-56.722-19.84-93.599-54.554-93.599-97.587 0-68.454 93.507-115.2 204.8-115.2 111.283 0 204.8 46.745 204.8 115.2 0 43.136-37.504 77.773-94.413 97.587-13.337 4.659-27.341-2.637-32-15.975-4.634-13.363 1.869-27.366 15.207-32 38.682-13.491 60.007-33.382 60.007-49.613 0-30.515-66.944-64-153.6-64-86.646 0-153.6 33.485-153.6 64 0 16.179 20.685 36.122 59.2 49.613 13.345 4.659 20.669 18.637 16 32-4.669 13.337-19.456 20.66-32.802 15.975z" />
<glyph unicode="&#xe935;" glyph-name="fm-hand-stop" d="M179.2 512c-33.741 0-62.313-21.171-72.624-51.405-2.637-0.128-0.827 0.205-4.175 0.205-56.553 0-102.4-45.849-102.4-102.4v-128c0-147.353 91.338-230.4 204.8-230.4 78.085 0 137.888 25.139 184.944 72.192 34.637 34.637 54.601 67.687 94.256 146.995 1.779 3.558 2.4 7.245 2.4 11.212 0 44.621-35.161 76.8-76.8 76.8-19.088 0-35.6-5.325-50.95-14.26l-0.25 91.060c0 56.55-45.847 102.4-102.4 102.4l-19.187-0.385c-14.047 15.411-35.118 25.985-57.613 25.985zM179.2 460.8c14.139 0 25.6-11.469 25.6-25.6v-128c0-14.131 11.461-25.6 25.6-25.6s25.6 11.469 25.6 25.6v128c28.278 0 51.2-22.912 51.2-51.2v-153.6c-0.079-16.538 14.298-25.6 25.6-25.6s19.050 6.759 23.2 14.387c2.211 4.070 7.002 11.827 14.394 19.2 11.565 11.571 24.346 17.613 39.207 17.613 12.768 0 23.238-8.038 25.337-20.634-67.111-136.781-121.686-184.397-230.137-184.166-83.379 0.179-153.6 61.261-153.6 179.2v128c0 28.288 22.922 51.2 51.2 51.2v-102.4c0-14.131 11.461-25.6 25.6-25.6s25.6 11.469 25.6 25.6v128c0 14.131 11.461 25.6 25.6 25.6z" />
<glyph unicode="&#xe936;" glyph-name="fm-house" d="M254.382 511.992c-26.007 0.307-51.463-8.286-69.533-26.366l-177.412-181.39c-7.631-7.799-9.675-19.025-4.795-28.794l23.174-46.339-0.798-146.252c-0.003-28.921 23.175-51.939 51.944-51.939h107.087c25.504 0 46.346 20.841 46.346 46.339v110.294c0 12.378 9.999 22.377 22.376 22.377h6.393c12.377 0 22.377-9.999 22.377-22.377v-110.294c0-25.498 20.842-46.339 46.364-46.339h107.075c28.768 0 51.939 23.168 51.939 51.939l-0.793 146.252 23.168 46.339c4.938 9.846 2.992 21.788-4.781 29.587-6.649 6.649-163.027 163.028-179.011 179.011-18.541 18.541-45.137 27.671-71.119 27.952zM254.382 460.846c12.863-0.255 25.701-4.935 34.344-13.579 14.858-14.833 141.571-141.547 166.224-166.225l-17.568-34.345c-1.789-3.606-2.429-7.185-2.403-11.2l0.791-152.645c0-0.358-0.253-0.793-0.791-0.793h-102.295v105.488c0 40.637-32.885 73.524-73.521 73.524h-6.393c-40.636 0-73.517-32.887-73.517-73.524v-105.488h-102.292c-0.522 0-0.798 0.281-0.798 0.793l0.798 152.645c0.025 4.015-0.599 7.595-2.396 11.2l-17.581 35.138 163.821 167.836c7.902 7.902 20.689 11.457 33.577 11.175z" />
<glyph unicode="&#xe937;" glyph-name="fm-image" d="M113.778 512c-62.834 0-113.778-50.944-113.778-113.778v-284.445c0-62.833 50.944-113.777 113.778-113.777h284.445c62.833 0 113.777 50.944 113.777 113.777v284.445c0 62.834-50.944 113.777-113.777 113.777h-284.445zM113.778 455.111h284.445c31.43 0 56.887-25.457 56.887-56.889l0.115-176.24c-22.131 20.536-44.687 33.393-69.462 34.018-0.883 0.028-0.853 0-1.764 0-32.341 0-68.295-24.86-92.444-56.007-6.174 13.937-12.403 27.704-19.571 40.902-33.564 61.98-70.228 100.352-115.541 100.438-38.513 0.086-71.566-31.403-99.783-74.524l0.227 131.413c0 31.431 25.458 56.888 56.889 56.888zM369.777 398.222c-15.702 0-28.444-12.743-28.444-28.444s12.743-28.445 28.443-28.445c15.702 0 28.446 12.743 28.446 28.445s-12.745 28.444-28.446 28.444zM156.445 284.443c16.554-0.027 41.7-25.798 65.763-70.229 9.558-17.579 18.119-36.95 25.798-56.007 4.608-11.377 8.165-20.081 9.758-24.86 7.765-23.24 39.281-26.538 51.569-5.349 1.223 2.106 3.441 6.144 7.111 11.548 6.144 9.103 13.142 18.319 20.452 26.681 18.262 20.935 35.868 32.881 47.104 32.881 11.349-0.284 28.87-12.202 47.104-32.881 7.397-8.39 14.223-17.579 20.452-26.682 1.962-2.844 2.247-4.182 3.554-6.2v-19.571c0-31.43-25.457-56.887-56.887-56.887h-284.445c-31.431 0-56.889 25.457-56.889 56.887v24.009c1.792 5.063 4.181 11.063 7.993 20.423 7.766 19.057 16.184 38.4 25.799 56.007 24.263 44.517 49.238 70.259 65.764 70.23z" />
<glyph unicode="&#xe938;" glyph-name="fm-information-circle" d="M256 512c-141.389 0-256-114.611-256-256s114.611-256 256-256c141.389 0 256 114.611 256 256s-114.611 256-256 256zM256 460.8c113.101 0 204.8-91.699 204.8-204.8s-91.699-204.8-204.8-204.8c-113.101 0-204.8 91.699-204.8 204.8s91.699 204.8 204.8 204.8zM256 384c-14.131 0-25.6-11.469-25.6-25.6s11.469-25.6 25.6-25.6c14.131 0 25.6 11.469 25.6 25.6s-11.469 25.6-25.6 25.6zM230.4 307.2c-14.131 0-25.6-11.469-25.6-25.6 0-12.339 9.19-21.555 20.787-24.013l-15.181-73.575c-5.939-29.721 15.309-56.013 45.594-56.013h25.6c14.131 0 25.6 11.469 25.6 25.6s-11.469 25.6-25.6 25.6h-19.993l19.2 97.587c3.175 15.846-8.653 30.413-24.807 30.413-3.226 0-21.453 0-25.6 0z" />
<glyph unicode="&#xe939;" glyph-name="fm-link" d="M369.432 511.965c-32.973-0.845-64.793-16.076-92.672-43.98l-39.142-39.168c-9.984-9.984-9.984-25.984 0-35.968s26.777-9.984 36.762 0l38.323 39.168c37.094 37.12 78.233 40.832 119.014 0 40.807-40.806 37.094-81.971 0-119.091l-77.466-77.543c-37.094-37.12-78.233-40.805-119.014 0l-11.187 11.187c-24.089 24.115-60.056-11.853-35.941-35.968l11.187-11.185c62.36-62.413 135.142-55.782 190.898 0l77.466 77.541c55.757 55.783 62.387 128.615 0 191.027-31.181 31.207-65.28 44.8-98.227 43.981zM209.663 356.881c-30.745-1.997-60.672-16.742-87.859-43.955l-77.466-77.543c-62.387-62.411-55.757-135.243 0-191.025 55.731-55.783 128.537-62.413 190.898 0l39.143 39.168c9.984 9.984 9.984 25.984 0 35.968s-26.778 9.984-36.762 0l-38.322-39.168c-40.806-40.832-81.919-37.12-119.014 0s-40.806 78.259 0 119.091l77.466 77.541c18.816 18.816 37.401 27.623 55.117 28.774 21.426 1.408 43.903-8.755 63.896-28.774l11.187-11.187c9.984-9.984 25.959-9.984 35.942 0s9.984 25.984 0 35.968l-11.187 11.188c-29.619 29.644-65.305 46.439-103.039 43.955z" />
<glyph unicode="&#xe93a;" glyph-name="fm-list" d="M113.778 512c-62.834 0-113.778-50.944-113.778-113.778v-284.443c0-62.835 50.944-113.779 113.778-113.779h284.443c62.835 0 113.779 50.944 113.779 113.779v284.443c0 62.834-50.944 113.778-113.779 113.778h-284.443zM113.778 455.111h284.443c31.433 0 56.889-25.457 56.889-56.889v-284.443c0-31.433-25.456-56.889-56.889-56.889h-284.443c-31.431 0-56.889 25.456-56.889 56.889v284.443c0 31.432 25.458 56.889 56.889 56.889zM142.222 398.222c-15.701 0-28.444-12.743-28.444-28.444s12.743-28.445 28.444-28.445c15.702 0 28.445 12.743 28.445 28.445s-12.743 28.444-28.445 28.444zM227.555 398.222c-15.702 0-28.445-12.743-28.445-28.444s12.743-28.445 28.445-28.445h142.224c15.699 0 28.442 12.743 28.442 28.445s-12.743 28.444-28.442 28.444h-142.224zM142.222 284.445c-15.701 0-28.444-12.743-28.444-28.445s12.743-28.445 28.444-28.445c15.702 0 28.445 12.743 28.445 28.445s-12.743 28.445-28.445 28.445zM227.555 284.445c-15.702 0-28.445-12.743-28.445-28.445s12.743-28.445 28.445-28.445h142.224c15.699 0 28.442 12.743 28.442 28.445s-12.743 28.445-28.442 28.445h-142.224zM142.222 170.666c-15.701 0-28.444-12.743-28.444-28.445 0-15.699 12.743-28.442 28.444-28.442s28.445 12.743 28.445 28.442c0 15.702-12.743 28.445-28.445 28.445zM227.555 170.666c-15.702 0-28.445-12.743-28.445-28.445 0-15.699 12.743-28.442 28.445-28.442h142.224c15.699 0 28.442 12.743 28.442 28.442 0 15.702-12.743 28.445-28.442 28.445h-142.224z" />
<glyph unicode="&#xe93b;" glyph-name="fm-lock-shield" d="M259.258 509.926c-1.382-0.589-177.692-74.441-177.641-74.416 0.231 0.103 0.41-0.358 1.588 0 0.999 0.281 1.101 0.359 3.995 0.794 0.461 0.051 1.254-0.025 1.613 0-12.548-0.333-24.814-8.886-24.814-25.607 0-115.567 3.918-162.584 24.020-220.047 26.376-75.517 78.795-136.285 168.037-187.27 7.862-4.505 17.721-4.505 25.608 0 89.192 50.96 141.663 111.063 168.038 186.451 20.077 57.361 24.019 105.067 24.019 220.072 0 10.217-5.811 19.154-15.209 23.2l-178.435 76.823c-6.453 2.766-14.365 2.766-20.819 0zM268.861 358.687c28.296 0 51.216-22.919 51.216-51.216 0-18.182-11.344-30.935-25.608-40v-62.432c0-14.135-11.472-25.607-25.608-25.607s-25.608 11.472-25.608 25.607v62.432c-14.263 9.090-25.608 21.818-25.608 39.999 0 28.296 22.918 51.215 51.215 51.215z" />
<glyph unicode="&#xe93c;" glyph-name="fm-look" d="M268.8 512c-70.681 0-128-57.319-128-128v-51.2c-42.419 0-76.8-34.381-76.8-76.8v-179.2c0-42.419 34.381-76.8 76.8-76.8h256c42.419 0 76.8 34.381 76.8 76.8v179.2c0 42.419-34.381 76.8-76.8 76.8v51.2c0 70.682-57.319 128-128 128zM268.8 460.8c42.419 0 76.8-34.381 76.8-76.8v-51.2h-153.6v51.2c0 42.419 34.381 76.8 76.8 76.8zM140.8 281.6h256c14.131 0 25.6-11.469 25.6-25.6v-179.2c0-14.131-11.469-25.6-25.6-25.6h-256c-14.131 0-25.6 11.469-25.6 25.6v179.2c0 14.131 11.469 25.6 25.6 25.6zM268.8 256c-42.419 0-76.8-34.381-76.8-76.8v-25.6c0-42.419 34.381-76.8 76.8-76.8s76.8 34.381 76.8 76.8v25.6c0 42.419-34.381 76.8-76.8 76.8zM268.8 204.8c14.131 0 25.6-11.469 25.6-25.6v-25.6c0-14.131-11.469-25.6-25.6-25.6s-25.6 11.469-25.6 25.6v25.6c0 14.131 11.469 25.6 25.6 25.6z" />
<glyph unicode="&#xe93d;" glyph-name="fm-magnify-glass" d="M232.727 442.182c43.206 0 84.643-17.163 115.192-47.715 30.553-30.551 47.715-71.988 47.715-115.194 0-42.875-16.899-84.008-47.014-114.489-0.199-0.192-0.397-0.384-0.595-0.582-0.221-0.221-0.442-0.445-0.656-0.672-30.497-30.208-71.695-47.165-114.642-47.165-43.207 0-84.643 17.161-115.194 47.715-30.552 30.55-47.715 71.986-47.715 115.192s17.163 84.643 47.715 115.194c30.551 30.551 71.988 47.715 115.194 47.715zM420.176 141.337c29.235 39.728 45.28 88.005 45.28 137.935 0 61.723-24.522 120.918-68.166 164.563s-102.839 68.164-164.562 68.164c-61.723 0-120.918-24.519-164.563-68.164s-68.164-102.84-68.164-164.563c0-61.723 24.52-120.918 68.164-164.562s102.84-68.166 164.563-68.166c50 0 98.341 16.093 138.101 45.405l81.555-81.702c13.623-13.645 35.725-13.664 49.37-0.045 13.645 13.623 13.664 35.725 0.045 49.37l-81.623 81.767z" />
<glyph unicode="&#xe93e;" glyph-name="fm-mail" d="M102.4 448c-56.55 0-102.4-45.85-102.4-102.399v-204.8c0-56.55 45.849-102.4 102.4-102.4h307.2c56.55 0 102.4 45.849 102.4 102.4v204.8c0 56.55-45.849 102.399-102.4 102.399h-307.2zM102.4 396.8h307.2c25.805 0 47.13-18.944 50.663-43.776-24.525-22.861-60.979-50.918-85.069-68.224-55.424-39.808-104.192-67.2-119.194-67.2s-63.769 27.366-119.194 67.2c-24.090 17.305-47.769 36.019-65.613 51.2-7.603 6.477-13.235 11.699-17.587 16 3.533 24.832 22.989 44.799 48.794 44.799zM51.456 285.338c64.973-52.557 160.179-118.63 204.543-118.938 28.902-0.205 78.336 27.392 128.768 62.234 26.087 18.048 55.117 39.475 76.058 57.063l-0.026-144.897c0-28.288-22.912-51.2-51.2-51.2h-307.2c-28.288 0-51.2 22.912-51.2 51.2l0.257 144.538z" />
<glyph unicode="&#xe93f;" glyph-name="fm-map-marker" horiz-adv-x="415" d="M219.375 511.654c-107.722 0-195.048-87.332-195.048-195.048 0-84.529 54.803-180.71 128.761-260.582 2.389-2.56 4.322-4.559 6.858-6.851 20.919-18.749 42.62-25.38 59.429-25.137 0.212 0 0.59 0 0.761 0 17.494 0 42.162 7.875 65.526 31.232 70.949 70.948 128.761 175.565 128.761 261.338 0 107.715-87.326 195.048-195.048 195.048zM219.375 462.892c80.791 0 146.286-65.487 146.286-146.286 0-70.365-52.363-163.597-115.049-226.28-13.207-13.214-25.019-17.527-31.237-17.527-0.517 0-0.885 0-0.761 0-5.544-0.073-15.221 2.609-25.907 12.19-1.414 1.268-3.203 3.094-4.569 4.581-66.335 71.607-115.049 157.964-115.049 227.036 0 80.798 65.495 146.286 146.286 146.286zM219.375 389.75c-40.397 0-73.143-32.743-73.143-73.143s32.746-73.144 73.143-73.144c40.397 0 73.143 32.745 73.143 73.144s-32.746 73.143-73.143 73.143zM219.375 340.988c13.465 0 24.381-10.923 24.381-24.381s-10.916-24.381-24.381-24.381c-13.465 0-24.381 10.923-24.381 24.381s10.916 24.381 24.381 24.381z" />
<glyph unicode="&#xe940;" glyph-name="fm-minus-circle" d="M256 512c-141.389 0-256-114.611-256-256s114.611-256 256-256c141.389 0 256 114.611 256 256s-114.611 256-256 256zM256 460.8c113.101 0 204.8-91.699 204.8-204.8s-91.699-204.8-204.8-204.8c-113.101 0-204.8 91.699-204.8 204.8s91.699 204.8 204.8 204.8zM153.6 281.6c-14.131 0-25.6-11.469-25.6-25.6s11.469-25.6 25.6-25.6h204.8c14.131 0 25.6 11.469 25.6 25.6s-11.469 25.6-25.6 25.6h-204.8z" />
<glyph unicode="&#xe941;" glyph-name="fm-pause-circle" d="M256 512c-141.389 0-256-114.611-256-256s114.611-256 256-256c141.389 0 256 114.611 256 256s-114.611 256-256 256zM256 460.799c113.101 0 204.8-91.699 204.8-204.8s-91.699-204.799-204.8-204.799c-113.101 0-204.8 91.699-204.8 204.799s91.699 204.8 204.8 204.8zM204.8 358.399c-14.131 0-25.6-11.469-25.6-25.6v-153.599c0-14.131 11.469-25.6 25.6-25.6s25.6 11.469 25.6 25.6v153.599c0 14.131-11.469 25.6-25.6 25.6zM307.2 358.399c-14.131 0-25.6-11.469-25.6-25.6v-153.599c0-14.131 11.469-25.6 25.6-25.6s25.6 11.469 25.6 25.6v153.599c0 14.131-11.469 25.6-25.6 25.6z" />
<glyph unicode="&#xe942;" glyph-name="fm-pencil" horiz-adv-x="488" d="M365.604 488.762c-6.461 0-12.947-2.292-17.53-6.851-13.556-13.556-62.342-62.343-73.167-73.192l-243.957-243.933c-3.389-3.413-5.145-8.241-6.095-12.971l-24.381-121.978c-3.413-17.067 11.118-31.596 28.184-28.207 15.263 3.072 106.74 21.356 121.978 24.403 4.73 0.951 9.558 2.707 12.971 6.095l243.933 243.957c10.849 10.826 59.636 59.637 73.192 73.168 4.559 4.583 6.851 11.068 6.851 17.529 0 39.912-10.167 68.438-31.257 89.966-21.284 21.724-49.713 32.012-90.721 32.012zM375.211 439.537c22.016-1.292 36.279-6.341 46.055-16.337 9.996-10.191 16.311-24.332 17.676-45.91-13.361-13.337-32.914-32.596-48.933-48.614-19.334 19.334-43.178 43.178-62.513 62.512 16.043 16.019 34.377 35.012 47.714 48.349zM292.438 356.129l62.513-62.514-184.492-184.489-62.513 62.51 184.492 184.492zM72.886 136.577l62.513-62.51-2.292-2.294c-16.091-3.219-48.591-10.021-78.531-16.019l16.019 78.531 2.292 2.292z" />
<glyph unicode="&#xe943;" glyph-name="fm-pin" d="M332.733 512c-6.791 0-13.77-3.546-18.673-8.238-39.644-37.959-51.783-69.703-37.288-113.186-33.82-25.922-55.18-32.284-97.399-32.284-57.714 0-95.397-6.958-121.038-32.581v-0.798c-23.992-23.982-23.992-62.382 0-86.342l71.684-72.243-122.138-122.083c-9.996-9.984-10.742-26.752-0.745-36.736 9.999-10.010 26.803-10.010 36.802 0l122.591 122.621 71.805-71.447c23.995-23.987 62.404-23.987 86.399 0h0.8c25.651 25.625 32.8 58.471 32.8 120.726 0 39.578 8.122 67.507 32.717 96.895 47.331-13.875 74.867-0.589 113.683 38.213 4.8 4.8 7.197 11.604 7.197 18.391 0 9.003-2.272 22.804-8 39.976-9.223 27.65-25.101 55.469-50.397 80.751-25.299 25.28-53.136 41.151-80.8 50.37-17.184 5.724-30.992 7.995-40 7.995zM342.647 459.403c27.197-5.049 54.582-23.053 74.083-42.547 19.504-19.491 36.115-43.366 42.989-74.656-24.432-23.439-39.379-25.292-63.817-12.429-9.747 5.133-22.099 3.318-29.888-4.47-46.618-46.591-58.88-88.856-58.88-145.893 0-49.661-2.921-68.118-18.401-84.759-4.37-4.711-10.399-3.993-14.397 0l-179.999 179.887c-3.999 3.993-3.876 9.113-0.653 13.031 9.144 11.135 29.496 19.786 85.451 19.755 66.892-0.038 102.453 17.188 146.398 58.365 7.792 7.787 9.728 19.732 4.8 29.583-13.165 26.314-11.111 40.183 12.313 64.132z" />
<glyph unicode="&#xe944;" glyph-name="fm-play-circle" d="M256 512c-141.383 0-256-114.611-256-256s114.617-256 256-256c141.382 0 256 114.611 256 256s-114.618 256-256 256zM256 460.8c113.107 0 204.8-91.699 204.8-204.8s-91.693-204.8-204.8-204.8c-113.108 0-204.8 91.699-204.8 204.8s91.692 204.8 204.8 204.8zM195.2 354.406c-9.439-5.069-16-14.566-16-28.006v-140.8c0-26.855 26.724-39.731 48.798-27.187l104.002 59.188c35.289 21.888 34.013 55.68 0 76.8l-104.001 59.187c-11.036 6.272-23.36 5.888-32.798 0.819z" />
<glyph unicode="&#xe945;" glyph-name="fm-plus-bag" d="M262.399 512c-56.553 0-102.399-45.85-102.399-102.4-38.001 0-99.2 0-102.4 0-14.139 0-25.6-11.469-25.6-25.6v-281.6c0-56.55 45.847-102.4 102.4-102.4h256c56.55 0 102.4 45.849 102.4 102.4v281.6c0 14.131-11.469 25.6-25.6 25.6-3.2 0-64.409 0-102.4 0 0 56.55-45.85 102.4-102.4 102.4zM262.399 460.8c28.288 0 51.2-22.912 51.2-51.2-46.695 0-55.705 0-102.399 0 0 28.288 22.911 51.2 51.2 51.2zM83.2 358.4c14.075 0 63.764 0 102.4 0 57.958 0 95.641 0 153.601 0 38.63 0 88.32 0 102.4 0v-256c0-28.288-22.912-51.2-51.2-51.2h-256c-28.278 0-51.2 22.912-51.2 51.2v256zM262.399 281.6c-14.131 0-25.6-11.469-25.6-25.6v-25.6h-25.6c-14.139 0-25.6-11.469-25.6-25.6s11.461-25.6 25.6-25.6h25.6v-25.6c0-14.131 11.469-25.6 25.6-25.6s25.6 11.469 25.6 25.6v25.6h25.6c14.132 0 25.601 11.469 25.601 25.6s-11.469 25.6-25.601 25.6h-25.6v25.6c0 14.131-11.469 25.6-25.6 25.6z" />
<glyph unicode="&#xe946;" glyph-name="fm-plus-circle" d="M244.155 488.761c-134.652 0-243.81-109.153-243.81-243.81s109.159-243.81 243.81-243.81c134.656 0 243.81 109.154 243.81 243.81s-109.154 243.81-243.81 243.81zM244.155 439.999c107.715 0 195.047-87.333 195.047-195.048s-87.332-195.048-195.048-195.048c-107.724 0-195.048 87.332-195.048 195.048s87.326 195.048 195.048 195.048zM244.155 366.856c-13.459 0-24.382-10.923-24.382-24.381v-73.143h-73.143c-13.465 0-24.381-10.923-24.381-24.382s10.916-24.381 24.381-24.381h73.143v-73.143c0-13.459 10.922-24.381 24.382-24.381 13.458 0 24.381 10.923 24.381 24.381v73.143h73.143c13.459 0 24.381 10.923 24.381 24.381s-10.923 24.381-24.381 24.381h-73.143v73.143c0 13.459-10.923 24.381-24.381 24.381z" />
<glyph unicode="&#xe947;" glyph-name="fm-plus-doc" d="M155.188 512c-49.946 0-91.188-37.888-91.188-85.606v-340.787c0-47.719 41.242-85.606 91.188-85.606h227.226c49.945 0 91.187 37.888 91.187 85.606 0 16.666 0 199.629 0 247.194 0 0.256 0 0.537 0 0.793 0 91.213-88.038 178.406-179.2 178.406-107.879 0-108.134 0-139.213 0zM155.188 460.8c25.369 0 54.067 0 113.613 0v-67.993c0-47.719 41.242-85.607 91.187-85.607h62.413c0-64.947 0-206.643 0-221.594 0-18.279-17.255-34.406-39.987-34.406h-227.226c-22.733 0-39.987 16.128-39.987 34.406v340.787c0 18.279 17.254 34.406 39.987 34.406zM320 454.4c45.363-12.032 85.043-50.765 96.793-96h-56.807c-22.759 0-39.987 16.128-39.987 34.407v61.593zM217.6 358.4c-14.131 0-25.6-11.469-25.6-25.6-14.131 0-25.6-11.469-25.6-25.6s11.469-25.6 25.6-25.6c0-14.131 11.469-25.6 25.6-25.6s25.6 11.469 25.6 25.6c14.131 0 25.6 11.469 25.6 25.6s-11.469 25.6-25.6 25.6c0 14.131-11.469 25.6-25.6 25.6zM192 230.4c-14.131 0-25.6-11.469-25.6-25.6s11.469-25.6 25.6-25.6h153.6c14.131 0 25.6 11.469 25.6 25.6s-11.469 25.6-25.6 25.6h-153.6zM192 153.6c-14.131 0-25.6-11.469-25.6-25.6s11.469-25.6 25.6-25.6h153.6c14.131 0 25.6 11.469 25.6 25.6s-11.469 25.6-25.6 25.6h-153.6z" />
<glyph unicode="&#xe948;" glyph-name="fm-plus-square" d="M134.487 486.945c-59.527 0-107.79-48.262-107.79-107.789v-269.475c0-59.526 48.263-107.79 107.79-107.79h269.473c59.526 0 107.789 48.262 107.789 107.789v269.475c0 59.526-48.262 107.789-107.789 107.789h-269.473zM134.487 433.050h269.473c29.777 0 53.894-24.118 53.894-53.894v-269.475c0-29.777-24.118-53.894-53.894-53.894h-269.473c-29.777 0-53.895 24.118-53.895 53.894v269.475c0 29.777 24.118 53.894 53.895 53.894zM269.224 379.156c-14.875 0-26.947-12.072-26.947-26.947v-80.842h-80.842c-14.875 0-26.947-12.072-26.947-26.947s12.072-26.949 26.947-26.949h80.842v-80.842c0-14.875 12.072-26.947 26.947-26.947s26.947 12.072 26.947 26.947v80.842h80.842c14.875 0 26.947 12.072 26.947 26.949 0 14.875-12.072 26.947-26.947 26.947h-80.842v80.842c0 14.875-12.072 26.947-26.947 26.947z" />
<glyph unicode="&#xe949;" glyph-name="fm-printer" horiz-adv-x="559" d="M195.491 512c-30.849 0-55.855-24.995-55.855-55.855v-27.927h-55.855c-46.27 0-83.782-37.507-83.782-83.782v-167.564c0-46.276 37.509-83.782 83.782-83.782h55.855v-27.928c0-30.86 25.006-55.855 55.855-55.855h167.564c30.848 0 55.854 24.995 55.854 55.855v27.928h55.855c46.271 0 83.782 37.507 83.782 83.782v139.637c0 46.275-37.509 83.782-83.782 83.782h-55.854v55.855c0 30.859-25.007 55.854-55.855 55.854h-167.564zM195.491 456.145h167.564v-55.854h-160.582l-6.982 3.491v52.363zM83.782 372.363h48.872l50.618-25.303c3.879-1.955 7.884-2.625 12.218-2.625h279.272c15.425 0 27.928-12.512 27.928-27.928v-139.637c0-15.416-12.502-27.928-27.928-27.928h-55.855v55.855c15.425 0 27.928 12.512 27.928 27.928s-12.502 27.928-27.928 27.928h-279.272c-15.424 0-27.927-12.512-27.927-27.928s12.503-27.928 27.927-27.928v-55.855h-55.855c-15.424 0-27.927 12.512-27.927 27.928v167.563c0 15.416 12.503 27.928 27.927 27.928zM111.709 344.437c-15.424 0-27.927-12.512-27.927-27.928s12.503-27.928 27.927-27.928c15.424 0 27.928 12.511 27.928 27.928s-12.503 27.928-27.927 27.928zM195.491 204.8h167.564v-139.637h-167.564v139.637z" />
<glyph unicode="&#xe94a;" glyph-name="fm-recycle" d="M499.238 167.696l-21.117 38.020-45.395-25.243 21.088-37.945c1.245-2.208 2.128-4.493 2.701-6.854 0.954-4.295 0.829-8.755-0.365-12.986-0.63-2.144-1.539-4.195-2.701-6.106-2.192-3.75-5.289-6.896-9.011-9.139-4.029-2.394-8.64-3.625-13.325-3.558h-119.491v51.942l-103.884-77.913 103.884-77.913v51.942h119.491c7.223 0 14.336 0.96 21.063 2.832 12.995 3.584 24.813 10.534 34.256 20.151 4.624 4.649 8.624 9.872 11.843 15.401 10.25 17.322 13.379 37.945 8.726 57.526-1.715 6.921-4.327 13.594-7.763 19.843zM100.27 284.668l-59.993-119.986c-3.106-6.211-5.386-12.803-6.779-19.606-2.538-12.745-1.845-25.92 2.016-38.327 3.861-12.409 10.766-23.651 20.086-32.704 4.623-4.522 9.765-8.467 15.453-11.767 11.856-6.774 25.275-10.336 38.931-10.336h45.813v51.942h-45.813c-4.547-0.013-9.020 1.149-12.986 3.376-3.787 2.179-6.946 5.303-9.168 9.063-2.281 3.667-3.61 7.846-3.87 12.157-0.126 2.131 0.031 4.269 0.468 6.361 0.468 2.259 1.246 4.493 2.311 6.649l58.59 117.18 41.528-23.971-15.53 128.894-119.415-51.007 48.358-27.918zM431.037 234.674l15.529 128.92-42.538-24.542-73.837 132.893c-5.155 9.453-12.243 17.712-20.803 24.241s-18.401 11.18-28.88 13.651c-6.572 1.523-13.304 2.247-20.050 2.156-13.732-0.257-27.153-4.137-38.904-11.245-12.544-7.614-22.654-18.651-29.139-31.815l-19.011-38.022 46.462-23.244 19.011 38.047c1.168 2.338 2.623 4.442 4.311 6.285 3.095 3.378 7.084 5.81 11.506 7.012 4.489 1.267 9.227 1.366 13.765 0.286 3.467-0.814 6.719-2.358 9.541-4.531s5.147-4.922 6.82-8.065l74.226-133.647-47.424-27.374 119.415-51.007z" />
<glyph unicode="&#xe94b;" glyph-name="fm-recycle-alternative" horiz-adv-x="536" d="M316.509 500.363l9.116-14.546 61.866-99.006 48.971 28.218 11.637-20.169-31.225-116.558-116.557 31.225-11.637 20.17 45.091 25.988-51.589 82.618h-34.327l-32.485-51.976-53.818 31.030 51.879 83.006h103.079zM412.702 229.334l53.818 31.029 51.88-83.007-9.309-16.193-54.982-95.225h-127.029v-54.303h-23.272l-85.334 85.334 85.334 85.332h23.272v-54.303h91.15l6.109 10.57 21.723 37.623-33.262 53.141h-0.098zM79.515 285.964l-47.224 27.248 11.636 20.17 116.558 31.224 31.225-116.558-11.637-20.168-46.837 27.055-49.261-78.837 27.831-48.098h60.121v-62.062h-96l-8.921 15.516-46.060 79.807-9.309 16.193 9.891 15.807 57.988 92.8v-0.097z" />
<glyph unicode="&#xe94c;" glyph-name="fm-sad-face" d="M256 512c-141.383 0-256-114.611-256-256s114.617-256 256-256c141.389 0 256 114.611 256 256s-114.611 256-256 256zM256 460.8c113.101 0 204.8-91.699 204.8-204.8s-91.699-204.8-204.8-204.8c-113.108 0-204.8 91.699-204.8 204.8s91.692 204.8 204.8 204.8zM179.2 332.8c-14.139 0-25.6-11.469-25.6-25.6v-25.6c0-14.131 11.461-25.6 25.6-25.6s25.6 11.469 25.6 25.6v25.6c0 14.131-11.461 25.6-25.6 25.6zM332.8 332.8c-14.131 0-25.6-11.469-25.6-25.6v-25.6c0-14.131 11.469-25.6 25.6-25.6s25.6 11.469 25.6 25.6v25.6c0 14.131-11.469 25.6-25.6 25.6zM256 208.793c-34.355 0-66.57-12.979-90.399-36.787-10.005-10.010-9.994-26.803 0-36.813 9.992-9.984 25.997-9.984 35.999 0 14.336 14.31 33.741 22.4 54.4 22.4 20.582 0 40.089-7.373 54.4-21.606 10.035-9.959 26.035-10.010 35.993 0 9.984 10.035 10.035 26.035 0 36.019-23.808 23.654-56.141 36.787-90.394 36.787z" />
<glyph unicode="&#xe94d;" glyph-name="fm-send" d="M411.813 447.281c-10.091 0.981-21.803-0.704-34.666-5.995 0 0-271.252-111.744-280-115.349-21.568-8.384-33.344-17.515-33.344-38.656v-2.666c0-21.547 17.451-36.395 37.995-39.339l115.349-27.99 27.328-114.688c2.624-20.95 18.133-38.656 40-38.656h2.666c21.142 0 30.123 12.053 38.656 34.005l115.35 279.339c15.894 38.613 0.875 67.029-29.334 69.995zM405.135 405.276c0.875-0.875 0.043-3.798-3.328-11.989l-115.328-280.022c-0.192-0.469-0.512-0.235-0.683-0.661l-30.656 127.339c-1.877 7.765-7.573 13.462-15.339 15.339l-126.656 30.656c9.13 3.755 280 116.011 280 116.011 8.192 3.37 11.115 4.203 11.99 3.328z" />
<glyph unicode="&#xe94e;" glyph-name="fm-square-and-circle" d="M404.211 512c-59.526 0-107.79-48.26-107.79-107.789s48.264-107.79 107.79-107.79c59.526 0 107.789 48.26 107.789 107.79s-48.262 107.789-107.789 107.789zM107.79 458.106c-59.526 0-107.79-48.26-107.79-107.789v-242.527c0-59.526 48.263-107.789 107.79-107.789h242.528c59.526 0 107.789 48.262 107.789 107.789v107.79c0 14.875-12.074 26.947-26.947 26.947-14.877 0-26.947-12.072-26.947-26.947v-107.79c0-29.776-24.118-53.894-53.894-53.894h-242.528c-29.776 0-53.895 24.118-53.895 53.894v242.527c0 29.766 24.118 53.894 53.895 53.894h107.79c14.875 0 26.947 12.065 26.947 26.947s-12.072 26.947-26.947 26.947h-107.79zM404.211 458.106c29.776 0 53.894-24.129 53.894-53.894s-24.118-53.894-53.894-53.894c-29.776 0-53.894 24.128-53.894 53.894s24.118 53.894 53.894 53.894z" />
<glyph unicode="&#xe94f;" glyph-name="fm-square-check" d="M113.778 512c-62.837 0-113.778-50.944-113.778-113.778v-284.443c0-62.835 50.941-113.779 113.778-113.779h284.446c62.835 0 113.776 50.944 113.776 113.779v284.443c0 62.834-50.941 113.778-113.776 113.778h-284.446zM369.779 346.68c7.277-0.029 14.889-2.446 20.445-8.021 11.107-11.094 11.107-28.871 0-39.993l-106.666-106.666c-32.719-32.711-82.779-27.817-108.447 10.666l-28.445 42.667c-8.713 13.056-5.069 31.289 8.001 39.993 13.073 8.733 31.286 5.091 40.001-7.993l28.445-42.667c5.751-8.618 13.11-9.103 20.443-1.764l105.775 105.757c5.555 5.546 13.168 8.021 20.448 8.021z" />
<glyph unicode="&#xe950;" glyph-name="fm-square-outlined" d="M113.78 512c-62.837 0-113.778-50.944-113.778-113.778v-284.443c0-62.835 50.941-113.779 113.778-113.779h284.444c62.835 0 113.779 50.944 113.779 113.779v284.443c0 62.834-50.944 113.778-113.779 113.778h-284.444zM113.78 455.111h284.444c31.433 0 56.889-25.457 56.889-56.889v-284.443c0-31.433-25.456-56.889-56.889-56.889h-284.444c-31.42 0-56.889 25.456-56.889 56.889v284.443c0 31.432 25.469 56.889 56.889 56.889z" />
<glyph unicode="&#xe951;" glyph-name="fm-thumb-up" d="M172.8 512c69.361 0 112.29-18.355 127.202-69.606 3.358-11.546 4.844-24.397 5.599-38.4 0.801-14.874 0.144-29.824-1.313-45.159l98.913-0.435c42.416 0 76.8-34.381 76.8-76.8 0-18.739-8.185-36.838-20.63-50.611 13.161-13.798 20.63-31.233 20.63-51.789 0-20.941-10.832-41.293-26.103-55.629 0-6.272 0.502-17.178 0.502-21.171 0-47.079-23.801-77.261-65.6-91.187-27.671-9.241-52.928-11.213-113.6-11.213-116.539 0-204.8 88.269-204.8 204.8 0 58.189 10.376 91.161 40.802 152.012 27.174 54.349 35.999 81.101 35.999 129.587 0 14.131 11.461 25.6 25.6 25.6zM197.491 459.75c-3.574-40.883-15.291-76.16-39.893-125.363-27.174-54.349-35.999-81.101-35.999-129.588 0-88.269 65.339-153.6 153.6-153.6 101.127 0 128 8.96 128 51.2-3.933 0-22.381 0-25.6 0-14.137 0-25.6 11.469-25.6 25.6s11.462 25.6 25.6 25.6c3.219 0 21.667 0 25.6 0 11.677 0 25.6 13.824 25.6 25.6 0 14.131-11.462 25.6-25.6 25.6-3.783 0-22.39 0-25.6 0-14.137 0-25.6 11.469-25.6 25.6s11.462 25.6 25.6 25.6c3.209 0 21.817 0 25.6 0 11.878 0 25.6 13.543 25.6 25.6 0 14.131-11.462 25.6-25.6 25.6h-128c-1.17 0-11.548 0.077-19.999 10.393-8.453 10.343-4.91 19.455-4.803 20.019 0.55 2.816 1.5 7.936 2.401 15.181 2.028 16.307 2.414 32.896 1.6 48-0.558 10.368-1.843 19.789-4.001 27.213-5.404 18.585-21.123 30.029-52.907 31.745z" />
<glyph unicode="&#xe952;" glyph-name="fm-trash-can" d="M166.4 512c-55.816 0-102.4-51.532-102.4-108.159v-20.046c0-14.157 11.461-25.625 25.602-25.625l-0.002-255.77c0-56.141 46.201-102.4 102.4-102.4h153.6c56.192 0 102.4 46.106 102.4 102.4l0.026 255.77c14.131 0 25.6 11.468 25.6 25.625v25.652c0 56.217-46.285 102.553-102.425 102.553h-204.799zM166.4 460.8l205.619-0.871c27.853 0 50.381-22.425 50.381-50.329-46.183 0-257.884 0-307.2 0 3.174 26.598 26.488 51.2 51.2 51.2zM140.8 358.4h256v-256c0-28.135-23.577-51.2-51.2-51.2h-153.6c-28.206 0-51.2 23.526-51.2 51.2v256zM217.598 307.533c-14.139 0-25.603-11.495-25.601-25.652v-153.83c0-14.183 11.461-25.651 25.601-25.651 14.134 0 25.602 11.469 25.602 25.651v153.83c0 14.157-11.469 25.652-25.602 25.652zM320 307.533c-14.13 0-25.599-11.495-25.599-25.652v-153.83c0-14.183 11.469-25.651 25.599-25.651s25.6 11.469 25.6 25.651v153.83c0 14.157-11.469 25.652-25.6 25.652z" />
<glyph unicode="&#xe953;" glyph-name="fm-trash-can-alternative" horiz-adv-x="415" d="M219.375 488.759c-26.941 0-48.762-21.821-48.762-48.762h-121.905c-13.459 0-24.381-10.923-24.381-24.381s10.922-24.38 24.381-24.38v-292.57c0-53.394 44.007-97.524 97.524-97.524h146.286c53.516 0 97.524 44.007 97.524 97.524v292.57c13.459 0 24.381 10.923 24.381 24.38s-10.923 24.381-24.381 24.381h-121.905c0 26.941-21.821 48.761-48.762 48.761zM97.47 391.236h243.809v-292.57c0-26.746-21.699-48.762-48.006-48.762l-147.042 0.756c-26.868 0-48.762 21.699-48.762 48.006v292.57zM170.613 342.474c-13.459 0-24.381-10.923-24.381-24.381v-195.047c0-13.459 10.922-24.381 24.381-24.381s24.381 10.923 24.381 24.381v195.047c0 13.458-10.922 24.381-24.381 24.381zM268.137 342.474c-13.459 0-24.381-10.923-24.381-24.381v-195.047c0-13.459 10.923-24.381 24.381-24.381s24.381 10.923 24.381 24.381v195.047c0 13.458-10.923 24.381-24.381 24.381z" />
<glyph unicode="&#xe954;" glyph-name="fm-truck" d="M102.4 448c-56.553 0-102.4-45.85-102.4-102.4v-153.6c0-38.81 19.248-70.298 52.521-89.011 5.681-36.813 37.079-64.589 75.479-64.589 32.456 0 61.419 20.327 72.166 51.226l85.947 0.026c11.607-30.567 39.832-51.251 72.286-51.251 33.363 0 61.459 20.787 72.928 52.608 49.312 6.912 80.672 41.677 80.672 100.992 0 0 0 0 0 25.6 0 65.331-62.663 128-128 128 0 56.55-45.846 102.4-102.4 102.4-22.4 0-156.8 0-179.2 0zM102.4 396.8c22.4 0 156.8 0 179.2 0 28.278 0 51.203-22.912 51.2-51.2 0 0 0-19.968 0-25.6 0-30.515 0.135-107.443 0.135-132.352-19.998-6.707-39.213-23.911-47.031-46.695 0 0-79.67-0.077-85.57-0.358-12.782 36.659-46.919 51.712-72.333 51.405s-48.758-12.339-63.79-34.253c-7.163 5.478-13.010 19.558-13.010 34.253v153.6c0 28.288 22.922 51.2 51.2 51.2zM384 294.4c37.063 0 76.8-39.731 76.8-76.8 0-25.6 0-25.6 0-25.6 0-30.643-9.111-43.955-30.714-49.075-6.541 18.969-26.179 38.298-45.926 44.391l-0.16 107.085zM128 140.8c13.653 0.205 25.579-11.366 25.6-25.6 0-14.131-11.461-25.6-25.6-25.6s-25.6 11.469-25.6 25.6c2.117 14.106 12.319 25.395 25.6 25.6zM358.4 140.8c14.137 0 25.6-11.469 25.6-25.6s-11.462-25.6-25.6-25.6c-14.137 0-25.6 11.469-25.6 25.6 0 7.065 2.567 13.773 7.2 18.406s11.331 7.193 18.4 7.193z" />
<glyph unicode="&#xe955;" glyph-name="fm-user" horiz-adv-x="415" d="M219.375 488.76c-67.326 0-121.905-54.579-121.905-121.904s54.579-121.906 121.905-121.906c67.326 0 121.905 54.58 121.905 121.906s-54.579 121.904-121.905 121.904zM219.375 439.999c40.397 0 73.143-32.746 73.143-73.143s-32.746-73.143-73.143-73.143c-40.397 0-73.143 32.746-73.143 73.143s32.746 73.143 73.143 73.143zM133.281 212.95c-63.739-17.42-108.954-72.843-108.954-138.666v-48.762c0-13.466 10.916-24.381 24.381-24.381h341.334c13.466 0 24.381 10.916 24.381 24.381v48.762c0 65.824-45.214 121.247-108.954 138.666-5.464 1.495-10.832 0.805-15.999-1.524-22.321-10.060-46.083-15.238-70.095-15.238s-47.775 5.178-70.095 15.238c-5.167 2.329-10.535 3.019-15.999 1.524zM143.185 164.188c24.62-9.311 49.851-16.762 76.19-16.762s51.57 7.451 76.19 16.762c41.531-12.581 70.095-47.638 70.095-89.905v-24.381h-292.572v24.381c0 42.267 28.564 77.324 70.095 89.905z" />
<glyph unicode="&#xe956;" glyph-name="fm-user-circle" d="M255.605 512c-141.17 0-255.118-114.433-255.603-255.603-0.485-140.966 114.561-256.115 255.603-256.397s255.861 116.429 255.605 256.397c-0.256 141.17-114.435 255.603-255.605 255.603zM255.605 460.88c112.926 0 204.482-91.557 204.482-204.483 0-57.51-23.949-109.347-62.16-146.512-18.839 40.717-59.251 69.831-105.591 69.831-9.176 0-64.284 0-73.486 0-46.264 0-86.599-28.755-105.436-69.498-38.187 37.165-62.291 88.668-62.291 146.179 0 112.926 91.557 204.483 204.483 204.483zM255.605 409.759c-56.463 0-102.242-45.779-102.242-102.242s45.779-102.242 102.242-102.242c56.463 0 102.242 45.779 102.242 102.241s-45.779 102.242-102.242 102.242zM255.605 358.638c28.244 0 51.121-22.877 51.121-51.12s-22.877-51.12-51.12-51.12c-28.244 0-51.12 22.876-51.12 51.12s22.876 51.12 51.12 51.12zM218.85 128.595c9.202 0 64.31 0 73.486 0 28.525 0 54.339-20.807 63.389-50.125-36.5-21.546-77.269-26.557-100.12-26.557-23.464 0-62.393 5.264-99.813 25.891 8.971 29.575 34.788 50.791 63.058 50.791z" />
<glyph unicode="&#xe957;" glyph-name="fm-user-list" horiz-adv-x="566" d="M175.538 486.945c-66.972 0-121.263-54.291-121.263-121.263s54.291-121.263 121.263-121.263c66.964 0 121.262 54.291 121.262 121.263s-54.298 121.263-121.262 121.263zM175.538 433.051c37.206 0 67.368-30.162 67.368-67.368s-30.162-67.365-67.368-67.368c-37.206 0-67.368 30.162-67.368 67.368s30.162 67.365 67.368 67.368zM377.643 379.156c-14.875 0-26.947-12.065-26.947-26.947s12.072-26.947 26.947-26.947h134.737c14.875 0 26.947 12.065 26.947 26.947s-12.072 26.947-26.947 26.947h-134.737zM350.695 271.366c-14.875 0-26.947-12.064-26.947-26.947 0-14.885 12.072-26.949 26.947-26.949h161.684c14.875 0 26.947 12.065 26.947 26.949s-12.072 26.947-26.947 26.947h-161.684zM82.907 208.206c-49.424-20.394-82.526-70.394-82.526-125.472v-53.894c0-14.883 12.065-26.947 26.948-26.947h296.42c14.875 0 26.947 12.065 26.947 26.947v53.894c0 53.781-33.28 102.57-82.512 123.791-6.952 2.986-15.010 3.077-21.908 0-23.849-10.688-47.072-15.996-70.737-16.002-23.584 0-46.894 5.605-71.578 16.842-6.788 3.088-14.161 3.678-21.054 0.841zM431.538 163.576c-14.875 0-26.947-12.065-26.947-26.947s12.072-26.947 26.947-26.947h80.842c14.875 0 26.947 12.065 26.947 26.947s-12.072 26.947-26.947 26.947h-80.842zM93.013 153.471c25.46-9.661 56.412-16.848 82.526-16.842 25.91 0 55.053 5.939 80.007 15.158 24.305-13.873 41.255-39.394 41.255-69.053v-26.947h-242.525v26.947c0 31.385 17.422 58.246 38.737 70.737z" />
<glyph unicode="&#xe958;" glyph-name="fm-user-rectangle-and-line" d="M166.4 512c-56.55 0-102.4-45.85-102.4-102.4v-307.2c0-54.682 43.417-102.502 102.4-102.4h204.8c56.704 0.256 102.4 45.824 102.4 102.4v307.2c0 56.55-45.849 102.4-102.4 102.4h-204.8zM166.4 460.8h204.8c28.288 0 51.2-22.912 51.2-51.2v-307.2c0-16.615-7.526-28.442-15.437-36.659-21.299 39.091-58.471 62.259-101.376 62.259-9.19 0-64.384 0-73.6 0-42.88 0-81.843-25.549-101.478-62.003-7.808 7.219-15.309 19.789-15.309 36.403v307.2c0 28.288 22.912 51.2 51.2 51.2zM217.6 409.6c-14.131 0-25.6-11.469-25.6-25.6s11.469-25.6 25.6-25.6h102.4c14.131 0 25.6 11.469 25.6 25.6s-11.469 25.6-25.6 25.6h-102.4zM268.8 307.2c-42.419 0-76.8-34.381-76.8-76.8s34.381-76.8 76.8-76.8c42.419 0 76.8 34.381 76.8 76.8s-34.381 76.8-76.8 76.8z" />
<glyph unicode="&#xe959;" glyph-name="fm-user-square" d="M113.778 512c-62.834 0-113.778-50.941-113.778-113.778v-284.443c0-62.839 50.944-113.779 113.778-113.779h284.446c62.832 0 113.776 50.941 113.776 113.779v284.443c0 62.837-50.944 113.778-113.776 113.778h-284.446zM113.778 455.111h284.446c31.43 0 56.887-25.469 56.887-56.889v-284.443c0-20.906-11.805-39.322-28.586-49.207-5.462 67.174-77.625 106.093-170.524 106.093-92.9 0-166.486-39.965-170.952-106.285-16.811 9.888-28.16 28.493-28.16 49.399v284.443c0 31.42 25.458 56.889 56.889 56.889zM256 398.222c-54.983 0-99.556-44.572-99.556-99.555s44.572-99.555 99.556-99.555c54.983 0 99.555 44.572 99.555 99.555s-44.572 99.555-99.555 99.555zM256 341.333c23.552 0 42.666-19.103 42.666-42.667s-19.115-42.666-42.666-42.666c-23.552 0-42.667 19.103-42.667 42.666s19.115 42.667 42.667 42.667zM256 113.779c69.347 0 113.779-25.882 113.779-52.448v-4.442h-227.557v4.442c0 26.567 44.43 52.448 113.778 52.448z" />
<glyph unicode="&#xe95a;" glyph-name="fm-user-viewfinder" d="M28.445 512c-15.701 0-28.445-12.743-28.445-28.445v-142.222c0-15.702 12.743-28.444 28.445-28.444s28.445 12.743 28.445 28.444v113.778h113.778c15.702 0 28.445 12.743 28.445 28.445s-12.743 28.445-28.445 28.445h-142.222zM341.334 512c-15.702 0-28.445-12.743-28.445-28.445s12.743-28.445 28.445-28.445h113.776v-113.778c0-15.702 12.743-28.444 28.445-28.444s28.445 12.743 28.445 28.444v142.222c0 15.702-12.743 28.445-28.445 28.445h-142.221zM256 426.666c-47.132 0-85.334-38.2-85.334-85.333s38.201-85.334 85.334-85.334c47.132 0 85.334 38.201 85.334 85.334s-38.202 85.333-85.334 85.333zM227.555 227.555c-49.152 0-98.815-31.8-112.895-76.458-5.775-18.32 8.334-37.318 27.562-37.318 28.871 0 213.163 0 227.557 0 19.481 0 32.938 18.887 26.678 37.318-14.819 43.605-64 76.458-112.013 76.458h-56.889zM28.445 199.111c-15.701 0-28.445-12.743-28.445-28.445v-142.221c0-15.702 12.743-28.445 28.445-28.445h142.222c15.702 0 28.445 12.743 28.445 28.445s-12.743 28.445-28.445 28.445h-113.778v113.776c0 15.702-12.743 28.445-28.445 28.445zM483.555 199.111c-15.702 0-28.445-12.743-28.445-28.445v-113.776h-113.776c-15.702 0-28.445-12.743-28.445-28.445s12.743-28.445 28.445-28.445h142.221c15.702 0 28.445 12.743 28.445 28.445v142.221c0 15.702-12.743 28.445-28.445 28.445z" />
<glyph unicode="&#xe95b;" glyph-name="fm-vibrating-phone" horiz-adv-x="559" d="M209.454 512c-53.983 0-97.746-43.762-97.746-97.745v-307.2c0-53.983 43.762-97.745 97.746-97.745h139.637c53.983 0 97.745 43.762 97.745 97.745v307.2c0 53.983-43.762 97.745-97.745 97.745h-139.637zM209.454 456.145h139.637c23.124 0 41.891-18.756 41.891-41.891v-307.2c0-23.135-18.767-41.891-41.891-41.891h-139.637c-23.124 0-41.891 18.755-41.891 41.891v307.2c0 23.135 18.767 41.891 41.891 41.891zM51.498 370.618c-14.55 5.113-30.664-2.905-35.803-17.454-10.361-29.505-15.695-60.621-15.695-92.509 0-32.142 5.194-63.672 15.695-93.384 5.166-14.536 21.253-21.73 35.803-16.579 14.522 5.151 22.593 20.37 17.454 34.909-8.406 23.74-13.097 49.289-13.097 75.055 0 25.562 3.938 50.604 12.232 74.18 5.111 14.553-2.039 30.67-16.589 35.783zM507.941 368.873c-14.578-5.043-22.51-20.334-17.483-34.909 8.071-23.286 12.232-48.108 12.232-73.309 0-25.898-4.608-51.207-13.098-75.054-5.166-14.531 2.933-30.606 17.454-35.784 14.55-5.173 30.609 2.928 35.803 17.454 10.612 29.848 15.695 61.077 15.695 93.384 0 31.438-5.641 62.495-15.695 91.635-5.055 14.578-20.359 21.627-34.909 16.583zM279.272 148.945c-15.416 0-27.928-12.502-27.928-27.928s12.512-27.928 27.928-27.928c15.416 0 27.928 12.502 27.928 27.928s-12.512 27.928-27.928 27.928z" />
<glyph unicode="&#xe95c;" glyph-name="fm-video-camera" d="M102.4 448c-56.55 0-102.4-45.85-102.4-102.4v-153.6c0-56.55 45.849-102.4 102.4-102.4h179.2c56.55 0 102.4 45.849 102.4 102.4v14.387l83.993-83.994c16.128-16.128 44.007-4.403 44.007 18.406v256c0 11.392-7.091 20.3-16 24.012-8.909 3.687-19.942 2.458-28.007-5.606-10.496-10.496-49.817-49.818-83.993-83.994v14.387c0 56.55-45.849 102.4-102.4 102.4h-179.2zM102.4 396.8h179.2c28.288 0 51.2-22.912 51.2-51.2v-153.6c0-28.288-22.912-51.2-51.2-51.2h-179.2c-28.288 0-51.2 22.912-51.2 51.2v153.6c0 28.288 22.912 51.2 51.2 51.2zM460.8 334.387v-131.175l-65.587 65.587c18.279 18.304 38.887 38.913 65.587 65.588z" />
<glyph unicode="&#xe95d;" glyph-name="fm-warning" d="M256.001 511.999c-42.511-0.026-74.505-22.221-99.998-67.2l-127.201-232.805c-19.686-34.331-28.982-58.471-28.8-83.991 0.409-57.139 46.346-102.195 102.4-102.4h307.198c56.122 0 102.185 44.39 102.4 102.4 0.093 25.443-9.923 51.12-29.6 83.991l-125.6 231.192c-23.571 45.030-57.707 68.837-100.799 68.812zM256.001 460.799c22.584 0 39.736-12.057 55.199-41.6l127.2-232.806c15.815-26.445 22.451-44.467 22.4-58.39-0.109-29.363-22.861-51.2-51.2-51.2h-307.198c-28.098 0.103-50.992 22.323-51.2 51.2-0.102 14.231 6.605 31.642 22.4 59.184l126.399 232.012c17.058 30.106 33.69 41.6 55.999 41.6zM256.001 358.4c-14.139 0-25.6-11.469-25.6-25.6v-102.399c0-14.131 11.461-25.599 25.6-25.599s25.6 11.469 25.6 25.599v102.399c0 14.131-11.461 25.6-25.6 25.6zM256.001 179.2c-14.139 0-25.6-11.469-25.6-25.6s11.461-25.597 25.6-25.597c14.139 0 25.6 11.466 25.6 25.597s-11.461 25.6-25.6 25.6z" />
<glyph unicode="&#xe95e;" glyph-name="fm-xmark-circle" d="M256 512c-141.376 0-256-114.624-256-256s114.624-256 256-256c141.376 0 256 114.624 256 256s-114.624 256-256 256zM256 460.8c113.088 0 204.8-91.712 204.8-204.8s-91.712-204.8-204.8-204.8c-113.088 0-204.8 91.712-204.8 204.8s91.712 204.8 204.8 204.8zM169.344 343.040c6.272 6.208 14.88 8.96 23.040 8.96 8.192 0 15.808-2.752 22.048-8.96l41.056-40.928 41.088 40.928c6.208 6.208 14.848 8.96 23.040 8.96 8.16 0 16.768-2.752 23.040-8.96 12.448-12.48 12.448-33.472 0-45.952l-41.088-40.896 41.088-40.928c12.448-12.448 12.448-33.472 0-45.92-12.48-12.448-33.632-12.448-46.080 0l-41.088 40.928-41.056-40.928c-12.48-12.448-32.608-12.448-45.088 0-12.448 12.448-12.448 33.472 0 45.92l40.064 40.928-40.064 40.896c-12.448 12.48-12.448 33.472 0 45.952z" />
<glyph unicode="&#xe95f;" glyph-name="fm-target" d="M0 256c0-67.84 27.093-133.12 74.88-181.12 48-47.786 113.28-74.88 181.12-74.88s133.12 27.094 181.12 74.88c47.786 48 74.88 113.28 74.88 181.12s-27.094 133.12-74.88 181.12c-48 47.786-113.28 74.88-181.12 74.88s-133.12-27.094-181.12-74.88c-47.786-48-74.88-113.28-74.88-181.12zM106.666 256c0 39.68 15.787 77.654 43.734 105.6s65.92 43.733 105.6 43.733c39.68 0 77.654-15.786 105.6-43.733s43.733-65.92 43.733-105.6c0-39.68-15.786-77.654-43.733-105.6s-65.92-43.733-105.6-43.733c-39.68 0-77.654 15.786-105.6 43.733s-43.733 65.92-43.733 105.6zM170.667 256c0 47.104 38.23 85.334 85.333 85.334s85.334-38.229 85.334-85.334c0-47.104-38.229-85.334-85.334-85.334s-85.334 38.229-85.334 85.334z" />
<glyph unicode="&#xe960;" glyph-name="fm-fire" horiz-adv-x="384" d="M153.6 482.1l16 21.3c4 5.4 10.4 8.6 17.1 8.6 11.7 0 21.3-9.6 21.3-21.3v-22.2c0-13.1 5.4-25.7 14.9-34.7l84.7-80.8c48.8-46.6 76.4-111.2 76.4-178.699 0-96.301-78-174.301-174.3-174.301h-17.7c-106 0-192 86-192 192v3.8c0 48.8 19.4 95.6 53.9 130.1l3.5 3.5c4.2 4.2 10 6.6 16 6.6 12.5 0 22.6-10.1 22.6-22.6v-89.4c0-35.299 28.7-64 64-64s64 28.701 64 64v3.9c0 18-7.2 35.3-19.9 48l-38.6 38.6c-24 24-37.5 56.7-37.5 90.7 0 27.7 9 54.8 25.6 76.9z" />
</font>
</defs>
</svg>
